<?xml version="1.0" encoding="UTF-8"?>
<svg id="Layer_1" data-name="Layer 1" xmlns="http://www.w3.org/2000/svg" xmlns:xlink="http://www.w3.org/1999/xlink" viewBox="0 0 306 216">
  <defs>
    <style>
      .cls-1 {
        fill: #fffaeb;
      }

      .cls-2 {
        fill: #020202;
      }

      .cls-3 {
        fill: #faa91c;
      }

      .cls-4 {
        clip-path: url(#clippath);
      }

      .cls-5 {
        fill: none;
      }

      .cls-6 {
        fill: #9cff3f;
      }

      .cls-7 {
        fill: #d33c63;
      }
    </style>
    <clipPath id="clippath">
      <polygon class="cls-5" points="-110.73 248.72 -114.85 255.56 -98.36 258.65 -95.73 290.48 -81.64 287.81 -54.64 289.16 -4.18 297.37 71.67 281.58 80.91 240.18 65.9 249.91 58.32 256.65 51.23 256.03 32.05 254.43 10.76 250.82 -14.54 243.44 -51.03 237.63 -80.14 237.94 -110.73 248.72"/>
    </clipPath>
  </defs>
  <g>
    <path class="cls-1" d="M155.72,173.65c-.21-.1-.42-.2-.64-.29-1.07-.48-1.57-1.33-1.46-2.49,.1-1.08,.74-1.78,1.86-2.07,1.96-.5,3.58,.6,3.54,2.4-.03,1.06-.56,1.82-1.56,2.19-.26,.1-.52,.18-.79,.26h-.96Zm2.07-2.48c.02-.85-.51-1.39-1.4-1.41-.93-.03-1.48,.43-1.54,1.27-.06,.84,.47,1.42,1.33,1.47,.98,.05,1.57-.44,1.6-1.33Z"/>
    <path class="cls-1" d="M143.48,173.65c-.26-.1-.52-.18-.77-.29-1.04-.44-1.51-1.27-1.42-2.51,.07-1.03,.67-1.8,1.73-2.02,.57-.12,1.19-.12,1.77-.02,1.13,.2,1.77,.97,1.85,2.04,.09,1.29-.41,2.11-1.54,2.54-.22,.08-.44,.17-.65,.25h-.96Zm.5-3.89c-.95,0-1.43,.43-1.46,1.32-.02,.92,.43,1.39,1.35,1.42,1.01,.03,1.52-.43,1.52-1.38,0-.91-.47-1.36-1.41-1.36Z"/>
    <path class="cls-1" d="M182.36,173.65c-.26-.1-.52-.18-.77-.29-1.04-.44-1.51-1.27-1.42-2.51,.07-1.03,.67-1.8,1.73-2.02,.57-.12,1.19-.12,1.77-.02,1.13,.2,1.77,.97,1.85,2.04,.09,1.29-.41,2.11-1.54,2.54-.22,.08-.44,.17-.65,.25h-.96Zm.46-1.15c.95,0,1.43-.43,1.45-1.33,.02-.91-.44-1.39-1.36-1.41-1.01-.03-1.52,.43-1.51,1.39,0,.91,.47,1.35,1.42,1.36Z"/>
    <path class="cls-1" d="M136.76,173.65c-.25-.1-.51-.2-.76-.31-.9-.42-1.4-1.28-1.34-2.33,.05-1.01,.53-1.74,1.48-2.12,1.37-.55,2.75-.06,3.45,1.26-.5,.41-.9,.39-1.4-.09-.5-.48-1.41-.41-1.86,0-.44,.42-.56,1.19-.26,1.77,.4,.77,1.52,.95,2.24,.27,.43-.4,.79-.43,1.3-.26,.02,.71-.36,1.12-.93,1.4-.31,.16-.65,.27-.97,.4h-.96Z"/>
    <path class="cls-3" d="M66.2,125.56c-10.04-7.9-20.63-14.68-32.33-19.8,.54-1.71,1.55-3.02,2.68-4.25,1.66-1.8,3.58-3.25,5.75-4.42,4.25-2.29,8.39-4.79,12.66-7.05,2.99-1.59,6.12-2.91,9.19-4.36,6.82-3.23,13.81-6.08,20.8-8.92,3.56-1.45,7.27-2.42,10.97-3.41,2.19-.59,4.42-1.07,6.64-1.53,3.44-.71,6.91-1.23,10.45-1.15,4.16,.09,8.32,.02,12.47,.09,1.92,.03,3.83,.19,5.75,.34,.75,.06,1.27-.18,1.78-.72,2.92-3.07,5.89-6.09,8.82-9.16,1.66-1.73,3.25-3.52,4.89-5.27,5.18-5.5,10.36-10.99,15.55-16.48,.05-.06,.13-.08,.33-.2,2.97,4.67,6.62,8.83,10.11,13.05-.65,1-1.27,1.92-1.85,2.87-.13,.21-.23,.58-.13,.74,.1,.15,.48,.22,.72,.18,.91-.13,1.82-.29,2.71-.5,.83-.2,1.41-.04,1.97,.68,2.96,3.83,5.97,7.61,8.97,11.41,.54,.69,1.07,1.38,1.67,2.17-.79,.32-1.48,.62-2.19,.87-3.28,1.19-6.41,2.71-9.37,4.54-.74,.46-1.47,.57-2.28,.44-2.48-.41-4.96-.84-7.45-1.23-1.69-.26-3.39-.46-5.09-.7-1.42-.2-2.83-.45-4.25-.64-1.46-.2-2.92-.42-4.39-.52-2.31-.16-4.62-.22-6.94-.32-.19,0-.39,.03-.73,.07,2.14,.38,4.13,.69,6.1,1.1,5.76,1.17,11.4,2.82,17.04,4.44,2.27,.65,4.55,1.24,6.81,1.92,4.79,1.42,9.54,2.97,14.35,4.31,6.04,1.68,12.09,3.38,18.21,4.72,4.28,.94,8.67,1.36,13.03,1.9,2.57,.32,5.19,.28,7.76,.62,2.56,.33,5.12,.23,7.65,.03,1.86-.15,3.61-.9,5.26-1.89,3.68-2.2,6.38-5.38,9.05-8.64,4-4.89,8.18-9.63,12.28-14.44,2.62-3.07,5.23-6.16,7.86-9.22,.78-.91,1.6-1.78,2.43-2.65,.71-.74,1.61-.99,2.78-.88,.22,1.15,.52,2.3,.65,3.47,.34,2.97,.76,5.95,.85,8.94,.16,5.23-.81,10.33-2.22,15.36-1.06,3.77-2.12,7.53-3.1,11.32-.82,3.13-.78,6.33-.51,9.53,.44,5.19,2.46,9.89,4.66,14.52,2.11,4.44,4.23,8.87,6.32,13.32,.39,.83,.68,1.71,.93,2.59,.17,.61,.25,1.26,.25,1.89,.01,1.54-.38,1.83-1.91,1.49-1.54-.34-2.93-1.06-4.23-1.93-3.09-2.08-6.27-3.99-9.66-5.56-2.79-1.29-5.55-2.69-8.41-3.78-1.92-.73-3.99-1.1-6.03-1.49-2.57-.49-5.18-.5-7.75-.05-2.32,.4-4.61,.96-6.91,1.45-1.76,.37-3.52,.73-5.28,1.12-.49,.11-.95,.3-1.69,.54,1.16,.51,2.07,.15,2.95,.19,.88,.04,1.76-.02,2.64-.06,.92-.04,1.84-.11,2.75-.15,.88-.04,1.76-.07,2.64-.09,.91-.01,1.82,0,2.77,0-.01,.18,0,.3-.04,.39-1.41,2.83-1.93,5.81-1.6,8.95,.04,.39,0,.8,.04,1.19,.22,1.83-.32,1.8,2.13,5.95-.62,.2-1.18-.09-1.71-.22-4.72-1.19-9.17-3.07-13.41-5.42-2.69-1.49-5.26-3.19-7.86-4.84-.84-.53-1.61-1.18-2.36-1.83-.94-.81-1.89-1.2-3.17-.8-2.85,.91-5.72,1.75-8.6,2.56-3.34,.94-6.67,1.89-10.11,2.44-4.45,.71-8.88,1.59-13.39,1.95-3.75,.3-7.48,.71-11.25,.53-.75-.04-1.52-.15-2.23-.39-1.73-.58-3.43-1.25-5.03-2.32,.18,.26,.35,.55,.56,.79,2.34,2.75,5.02,5.15,7.81,7.44,2,1.64,4.01,3.27,6.08,4.96-.26,.03-.54,.08-.82,.09-7.38,.08-14.43-1.54-21.29-4.11-.7-.26-1.36-.68-1.97-1.12-3.47-2.5-6.87-5.1-9.97-8.06-.98-.94-2.06-1.55-3.39-1.88-4.96-1.25-9.88-2.64-14.84-3.88-3.65-.91-7.37-1.35-11.13-1.63-4.51-.34-9.02-.52-13.54-.37-1.51,.05-3.03,.18-4.53,.4-.8,.12-1.55,.51-2.33,.77-.01,.1-.03,.19-.04,.29,.79,.48,1.57,.98,2.37,1.44,1.35,.77,2.73,1.5,4.08,2.28,.91,.52,1.25,1.38,.89,2.33-1.36,3.63-2.74,7.24-4.13,10.86-.03,.07-.1,.12-.25,.28-.97-.64-1.98-1.26-2.94-1.95-3.18-2.29-6.28-4.68-8.95-7.59-2.37-2.58-4.25-5.48-5.93-8.53-.12-.21-.27-.41-.34-.63-.45-1.66-1.64-2.1-3.23-2.14-1.23-.03-2.46-.28-3.68-.51-.34-.06-.72-.34-.92-.64-2.06-3.09-4.11-6.19-6.12-9.31-.76-1.18-1.79-2-3.01-2.66-2.8-1.5-5.7-2.66-8.82-3.36-3.05-.68-6.09-1.33-9.22-1.39-.39,0-.78,0-1.17,.12,1.32,.23,2.65,.42,3.96,.71,3.97,.89,7.65,2.54,11.23,4.44,.67,.36,1.33,.74,2,1.1,2.06,1.12,3.15,2.95,3.46,5.19,.31,2.17,.41,4.37,.59,6.55,.02,.23-.04,.46-.08,.8Zm3.85-29.19c-.15-.06-.46-.12-.47-.09,.17,.02,.33,.04,.5,.07,2.48,.97,4.48,2.54,6.06,4.7,2.89,3.93,2.8,9.83-1.15,13.54-.28,.26-.54,.54-.85,.85,.18,.04,.27,.09,.33,.08,2.67-.77,4.82-2.1,5.57-5.02,.29-1.13,.66-2.23,.48-3.41-.23-1.47-.65-2.87-1.36-4.19-1.98-3.65-5-5.83-9.09-6.52Zm15.62,27.09c.41-.13,.64-.2,.87-.28,3.94-1.54,8.06-2.28,12.24-2.53,2.82-.17,5.65-.25,8.5-.13,4.19,.17,8.38,.29,12.54,.78,2.45,.29,4.91,.59,7.31,1.11,3.85,.83,7.69,1.75,11.49,2.79,7.49,2.07,15,4.01,22.76,4.79,3.09,.31,6.18,.77,9.28,.87,5.54,.17,11.1,.36,16.6-.68,1.38-.26,2.77-.53,4.43-.84-.53-.54-.83-.89-1.17-1.2-1.06-.94-1.94-2.01-2.63-3.24-.76-1.35-.97-1.35-2.51-1.02-2.34,.5-4.68,1.07-7.05,1.28-3.06,.27-6.15,.25-9.22,.28-1.19,.01-2.4-.07-3.57-.3-4.03-.78-8.05-1.57-12.05-2.48-3.97-.91-7.88-2.06-11.85-2.94-5.46-1.21-10.95-2.27-16.43-3.35-2.47-.49-4.94-.98-7.44-1.25-2.18-.24-4.39-.21-6.58-.25-3.84-.07-7.67,.06-11.49,.49-1.3,.14-2.6,.24-3.9,.41-.64,.08-.87-.3-1.01-.77-.08-.26-.02-.55-.02-.83-.11-5.11,.05-10.23-.18-15.35-.28-6.1-.21-12.22-.29-18.33,0-.39,0-.78,0-1.26-9.53,2.3-18.37,5.81-26.28,11.47,.22,.09,.41,.1,.59,.05,3.38-.96,6.81-1.75,10.3-2.21,1.78-.23,3.58-.31,5.37-.39,.82-.04,1.05,.24,1.17,1.04,.03,.2,.03,.4,.03,.6,.07,5.03,.17,10.06,.21,15.1,.04,4.48,.01,8.96,.01,13.44,0,1.68,0,3.35,0,5.16Zm35.33-47.5v35.58c.52,.14,1.01,.3,1.51,.41,.94,.2,1.88,.37,2.82,.57,2.69,.57,5.38,1.18,8.08,1.73,1.77,.36,3.56,.58,5.36,.36,1.79-.21,3.48-.76,4.56-2.31,.87-1.25,1.56-2.6,1.62-4.18,.04-1.08,.22-2.16,.11-3.22-.26-2.53-.87-4.96-2.67-6.91-.51-.55-1.02-1.1-1.51-1.63,.03-.1,.03-.15,.06-.18,.17-.17,.33-.34,.51-.49,1.49-1.33,2.34-2.99,2.61-4.96,.35-2.54,.14-5.01-.89-7.4-1.51-3.51-4.35-5.33-7.92-6.13-3.59-.8-7.24-1.2-10.91-1.39-1.07-.06-2.14,.1-3.32,.16Zm61.85,33.8c.74,0,1.41,.03,2.07,0,.6-.03,.96,.19,1.2,.74,.81,1.87,1.64,3.72,2.49,5.57,1.03,2.24,2.04,4.5,3.17,6.69,.95,1.84,2.35,3.32,4.13,4.41,.97,.59,1.98,.99,3.17,.83,1.58-.21,3.18-.31,4.76-.52,1.1-.15,2.19-.4,3.28-.64,.23-.05,.42-.25,.74-.46-.43-.22-.71-.36-.98-.51-1.32-.74-2.66-1.47-3.97-2.23-1.06-.61-1.85-1.5-2.57-2.48-1.41-1.89-2.67-3.88-3.67-6.02-.88-1.87-1.71-3.75-2.55-5.61,.56-.64,1.07-1.15,1.48-1.73,.56-.77,1.24-1.53,1.53-2.41,1-3.1,1.16-6.25,.16-9.42-.81-2.54-2.1-4.69-4.39-6.2-1.19-.78-2.48-1.31-3.8-1.71-2.44-.74-4.92-1.37-7.4-1.98-2.05-.5-4.13-.89-6.2-1.36-.52-.12-.93-.07-1.27,.35v37.37c.93,.49,1.3,.58,2.22,.44,1.3-.2,2.6-.4,3.89-.65,.81-.16,1.6-.41,2.49-.64v-11.84Zm-25.48-19.33c4.02,.69,7.89,1.35,11.76,2.01,.5-.3,.48-.78,.48-1.27,0-2.24,0-4.48,0-6.72,0-1.05,0-1.06-1.12-1.28-3.99-.8-7.98-1.59-11.98-2.38-2.49-.49-4.98-.97-7.53-1.47-.1,.33-.21,.55-.22,.76-.08,1.63-.18,3.27-.21,4.9-.1,5.35-.2,10.71-.25,16.06-.04,4.56-.02,9.12-.03,13.68,0,.4,0,.8-.05,1.19-.17,1.09,.17,1.63,1.26,1.82,.79,.13,1.6,.14,2.38,.29,3.13,.62,6.26,1.27,9.38,1.93,2.11,.45,4.21,.95,6.32,1.37,.63,.13,1.3,.1,1.9,.14,.09-.22,.14-.29,.14-.36,.09-2.47,.16-4.94,.26-7.41,.02-.57-.16-.91-.74-1.04-1.37-.29-2.72-.61-4.09-.9-2.38-.5-4.77-.99-7.16-1.48-.54-.11-.85-.37-.84-.96,.04-1.24,.06-2.47,.1-3.71,0-.26,.09-.52,.14-.81,1.89,.33,3.69,.66,5.5,.95,1.83,.3,3.62,.89,5.64,.92,0-.8,0-1.51,0-2.22,.01-1.56-.08-3.13,.08-4.67,.08-.72,.1-1.31-.27-1.95-.3-.07-.61-.17-.92-.23-3.06-.57-6.11-1.14-9.17-1.7-.67-.12-.98-.52-.94-1.13,.07-1.03,.11-2.06,.16-3.09,.02-.39,0-.78,0-1.26Zm86.88,29.55c0-.58-.01-1.01,0-1.45,.08-2.8,.15-5.59,.24-8.39,.01-.31,.08-.64,.21-.92,1.36-3.07,2.67-6.16,4.13-9.18,2.3-4.74,4.73-9.42,7.08-14.13,.65-1.31,1.22-2.66,1.89-4.13-.38,.02-.59-.02-.74,.05-2.46,1.05-4.89,2.17-6.97,3.87-.74,.6-1.37,1.34-2.07,1.98-2.12,1.94-3.77,4.25-5.04,6.79-1,1.99-1.71,4.13-2.57,6.19-.15,.37-.13,.85-.66,1.13-1.21-2.71-2.39-5.35-3.51-7.85-3.3,.39-6.48,.76-9.76,1.14,.15,.36,.22,.58,.33,.79,1.18,2.27,2.35,4.55,3.56,6.8,1.38,2.57,2.81,5.11,4.23,7.65,.42,.75,.63,1.51,.59,2.38-.11,2.59-.18,5.19-.24,7.78-.02,.97,.3,1.18,1.25,1,1.36-.25,2.73-.44,4.08-.69,1.27-.24,2.53-.53,3.96-.83Zm-44.2-29.14c.12,2.89,.21,5.56,.35,8.22,.03,.65,.41,1.01,1.05,1.1,1.94,.26,3.88,.52,5.82,.75,1.27,.15,1.41,.25,1.44,1.53,.05,1.68,.02,3.36,.09,5.04,.21,5.23,.44,10.46,.71,15.68,.04,.89,.29,1.78,.43,2.62,1.38,.15,7.37-1.63,8.76-2.53-.27-6.8-.38-13.57-.3-20.37,.42-.03,.69-.06,.97-.06,1.44,0,2.88,.02,4.32,.02,1.61,0,1.64,0,1.6-1.56-.06-2.03-.17-4.05-.27-6.08,0-.07-.08-.13-.14-.2-.11-.02-.22-.05-.34-.07-4.5-.66-9.02-1.25-13.51-2.01-3.23-.54-6.42-1.3-9.62-1.95-.37-.08-.76-.08-1.36-.14Zm-93.21,21.3c.75,0,1.35,.02,1.94,0,1.68-.06,3.35-.13,5.02-.19,.24,0,.48,.02,.72,0,.81-.03,1.05-.27,1.1-1.08,.02-.24,0-.48,0-.72,0-8.47,0-16.94-.01-25.41,0-2.64,0-5.28,0-7.91,0-.94-.09-1.04-1.03-1.02-2.03,.05-4.06,.14-6.09,.22-.24,0-.47,.09-.71,.11-1.32,.13-1.25,.31-1.24,1.4,.06,9.07,.12,18.13,.18,27.2,.01,2.04,.03,4.08,.05,6.11,0,.39,.04,.78,.06,1.3Zm-49.73-12.67c-.17,.68-.16,.94,.07,1.64,.48,1.46,2.08,2.67,3.4,2.58,1.59-.11,3.14-1.49,3.43-3.06,.44-2.37-.95-4.5-3.3-5.05-.66-.15-1.3-.13-2.07,.4,.55,.19,.89,.29,1.21,.43,1.29,.55,1.88,2.11,1.25,3.3-.57,1.08-1.6,1.22-2.98,.39-.33-.2-.65-.41-1-.63Z"/>
    <path class="cls-3" d="M57.59,124.36c-2.96,1.68-6.23,2.3-9.39,3.21-3.17,.92-6.36,1.82-9.65,2.76-1.14-2.26-2.01-4.5-2.85-6.76,1.03-.88,2.01-1.69,2.96-2.53,.38-.33,.7-.26,1.07,0,.69,.47,1.4,.92,2.09,1.38,.7,.47,1.38,.58,2.23,.27,2.32-.85,4.7-1.56,7.03-2.39,.76-.27,1.35-.2,1.98,.31,1.38,1.14,2.81,2.22,4.22,3.33,.12,.09,.19,.24,.31,.41Z"/>
    <path class="cls-1" d="M202.23,147.68c1.1,2.08,2.07,3.91,3.1,5.87-.98,.52-1.87,1-2.89,1.55-1.79-3.34-3.53-6.6-5.35-10,.89-.47,1.7-.97,2.57-1.32,.29-.12,.76,.11,1.12,.25,2.11,.84,4.22,1.7,6.33,2.55,.15,.06,.29,.11,.72,.27-1.08-2.05-2.04-3.88-3.06-5.82,.92-.51,1.82-1,2.85-1.56,1.87,3.26,3.51,6.57,5.32,9.86-.77,.71-1.69,1.1-2.58,1.48-.23,.1-.61-.1-.9-.22-2.07-.83-4.14-1.68-6.21-2.53-.25-.1-.5-.19-1.01-.39Z"/>
    <path class="cls-1" d="M221.97,134.49c1.02,1.28,1.94,2.44,2.87,3.58,.31,.39,.37,.75,.15,1.21-1.41,2.99-3.68,5.02-6.83,5.95-1.71,.5-3.36,.09-4.69-1.14-2.69-2.49-3.24-5.67-.6-8.68,1.15-1.31,2.54-2.31,4.29-2.7,1.32-.29,2.52-.05,3.69,.77-.58,.99-1.51,1.57-2.27,2.4-1.53-.51-2.67,.15-3.6,1.34-.53,.67-.68,1.43-.43,2.26,.33,1.08,1.02,1.9,1.98,2.46,.79,.46,1.62,.39,2.41-.01,1.12-.57,2.05-1.37,2.8-2.54-.22-.28-.45-.57-.72-.91-.71,.52-1.35,.97-2.03,1.47-.5-.62-.95-1.17-1.52-1.86,1.52-1.22,2.98-2.39,4.5-3.61Z"/>
    <path class="cls-1" d="M188.78,148.38c.86,3.69,1.7,7.29,2.56,11.02-1.14,.28-2.2,.53-3.36,.82-.35-1.43-.69-2.77-1.05-4.24-1.6,.37-3.13,.72-4.77,1.09,.32,1.44,.62,2.78,.95,4.25-1.12,.27-2.18,.52-3.38,.8-.85-3.67-1.69-7.27-2.57-11.03,1.15-.27,2.21-.52,3.38-.79,.33,1.33,.63,2.56,.95,3.9,1.58-.37,3.11-.72,4.77-1.1-.29-1.32-.56-2.55-.86-3.91,1.13-.27,2.19-.52,3.37-.81Z"/>
    <path class="cls-1" d="M164.31,159.6c1.14-.07,2.16-.13,3.24-.19,.89,1.71,2.41,1.38,3.88,1.19,.19-.02,.42-.1,.54-.24,.21-.25,.52-.59,.48-.85-.04-.26-.41-.62-.69-.67-.82-.17-1.67-.15-2.49-.3-1.09-.2-2.2-.39-3.24-.76-1.11-.39-1.63-1.33-1.72-2.51-.09-1.25,.44-2.21,1.49-2.8,2.31-1.29,4.77-1.53,7.28-.68,1.16,.39,1.93,1.24,2.23,2.59-.91,.42-1.92,.39-2.87,.55-.17,.03-.41-.18-.58-.33-.95-.85-2.63-1.05-3.65-.36-.22,.15-.45,.52-.41,.75,.04,.23,.37,.54,.62,.59,.74,.15,1.5,.18,2.25,.29,1.02,.15,2.07,.25,3.06,.52,1.3,.36,2.1,1.24,2.23,2.65,.14,1.48-.4,2.64-1.71,3.27-2.36,1.13-4.85,1.3-7.34,.54-1.44-.44-2.33-1.46-2.58-3.25Z"/>
    <path class="cls-1" d="M155.03,156.19c-.15,.88-.28,1.68-.43,2.58-1.89-.31-3.65-.6-5.52-.91-.24,1.26-.47,2.5-.73,3.88-1.14-.19-2.23-.37-3.41-.57,.63-3.74,1.24-7.38,1.88-11.16,3.15,.53,6.16,1.03,9.31,1.56-.14,.88-.27,1.68-.42,2.59-1.98-.32-3.86-.62-5.86-.95-.13,.67-.24,1.27-.38,2.01,1.87,.33,3.66,.64,5.56,.98Z"/>
    <path class="cls-1" d="M119.97,138.44c-.54,.7-1.02,1.33-1.6,2.08-1.57-1.22-3.1-2.4-4.73-3.66-.42,.54-.8,1.03-1.26,1.63,1.48,1.17,2.9,2.29,4.42,3.49-.55,.71-1.03,1.32-1.6,2.05-1.49-1.14-2.94-2.25-4.47-3.43-.81,1.02-1.59,2.01-2.45,3.09-.91-.71-1.78-1.38-2.74-2.13,2.32-2.98,4.59-5.9,6.96-8.93,2.52,1.96,4.96,3.86,7.46,5.8Z"/>
    <path class="cls-1" d="M131.94,157.13c-1.17-.49-2.15-.91-3.2-1.35,.44-1.09,.82-2.1,1.25-3.07,.27-.61,.32-1.21,.17-1.86-.45-2.02-.87-4.05-1.3-6.08-.07-.34-.11-.68-.21-1.24,1.17,.47,2.16,.84,3.11,1.29,.22,.1,.39,.48,.44,.76,.29,1.4,.53,2.81,.81,4.35,1.41-1,2.74-1.94,4.16-2.94,1.02,.41,2.08,.83,3.29,1.31-.34,.29-.55,.5-.79,.67-1.78,1.21-3.56,2.43-5.36,3.61-.52,.34-.89,.76-1.1,1.35-.38,1.04-.82,2.06-1.28,3.2Z"/>
    <path class="cls-1" d="M121.32,139.26c1.05,.59,1.98,1.12,3.02,1.71-1.39,2.47-2.75,4.89-4.15,7.37,1.81,1.04,3.57,2.05,5.48,3.15-.55,.78-1.07,1.5-1.64,2.31-2.76-1.57-5.45-3.09-8.28-4.7,1.86-3.28,3.67-6.48,5.58-9.84Z"/>
    <path class="cls-1" d="M191.33,147.3c1.08-.42,2.07-.8,3.22-1.25,1.4,3.49,2.62,7,4.01,10.59-1.11,.42-2.13,.81-3.27,1.24-1.33-3.55-2.62-7.01-3.96-10.59Z"/>
    <path class="cls-1" d="M161.78,151.85c-.21,3.81-.41,7.47-.62,11.27-1.19-.05-2.28-.1-3.48-.15,.21-3.84,.41-7.52,.62-11.3,1.19,.06,2.25,.11,3.48,.18Z"/>
    <path class="cls-3" d="M209.54,87.53c2-1.57,3.84-2.88,5.89-3.88,.47-.23,.93-.46,1.42-.64,.85-.32,1.31,0,1.31,.89,0,1.32,0,2.63,0,3.95,0,.77-.15,.96-.9,.89-2.5-.21-4.99-.49-7.72-1.21Z"/>
    <path class="cls-1" d="M173.7,168.85c1,0,1.92-.07,2.82,.02,1.25,.13,1.96,.95,2,2.15,.04,1.21-.58,2.11-1.82,2.3-.96,.14-1.96,.03-3,.03v-4.49Zm1.24,3.54c.88,.07,1.67,.21,2.16-.57,.3-.47,.3-.99-.04-1.46-.55-.75-1.31-.53-2.12-.5v2.54Z"/>
    <path class="cls-1" d="M165.44,173.31c-.95,.37-1.41-.03-1.72-.73-.31-.7-.79-.95-1.59-.62-.05,.43-.1,.89-.16,1.41h-.98v-4.52c1,0,1.95-.08,2.88,.02,1.3,.15,1.76,1.31,1.02,2.38-.11,.15-.26,.28-.39,.42,.32,.56,.61,1.08,.94,1.64Zm-3.32-2.38c.55-.03,.94-.02,1.32-.07,.33-.05,.66-.23,.55-.61-.05-.2-.35-.42-.57-.46-.41-.07-.83-.02-1.3-.02v1.16Z"/>
    <path class="cls-1" d="M172.02,173.31q-1.11,.15-1.71-.79h-2.05c-.3,.58-.63,1.2-1.63,.77,.66-1.46,1.31-2.92,1.98-4.41h1.41c.66,1.46,1.32,2.93,2,4.43Zm-3.38-1.88h1.3c-.23-.53-.39-.92-.64-1.5-.26,.59-.45,1.01-.67,1.5Z"/>
    <path class="cls-1" d="M152.26,172.51c.11,.61,0,.93-.56,.93-1.03,0-2.06,0-3.17,0v-4.54h1.12v3.47c.92,.05,1.74,.09,2.61,.13Z"/>
    <path class="cls-3" d="M128.87,104.42v-5.05c2.28,.18,4.45,.53,6.3,1.9,.78,.58,1.01,1.9,.59,2.92-.34,.84-1.31,1.37-2.5,1.17-1.44-.23-2.86-.6-4.39-.94Z"/>
    <path class="cls-3" d="M128.88,90.59v-5.24c1.25,.11,2.45,.1,3.59,.36,2.05,.47,3.08,2.39,2.41,4.19-.24,.65-.65,1.16-1.37,1.16-1.54,0-3.07-.17-4.63-.47Z"/>
    <path class="cls-3" d="M183.28,94.65c1.66,.18,3.31,.54,4.81,1.46,1.98,1.21,1.79,4.13,.99,5.34-.21,.32-.67,.6-1.06,.66-1.53,.23-3.02-.04-4.48-.5-.23-.07-.51-.45-.51-.69,0-2.03,.06-4.06,.11-6.09,0-.03,.05-.06,.13-.18Z"/>
  </g>
  <g class="cls-4">
    <g>
      <path class="cls-7" d="M90.72,280.53c4.68-.69,8.52-3.11,11.16-7.75,1.31-2.31,2.12-4.83,2.05-7.72-.04-1.84-.39-3.56-.91-5.29-.67-2.24-1.69-4.21-3.13-5.86-1.71-1.96-3.47-3.9-5.57-5.24-1.44-.92-2.71-2.39-4.5-2.36-.03,0-.06-.03-.09-.04-3.1-1.04-6.14-2.31-9.22-3.45-4.36-1.62-8.72-3.28-13.05-5.01-2.9-1.16-5.79-2.37-8.74-3.32-4.76-1.54-9.51-3.09-14.27-4.66-4.69-1.54-9.42-2.9-14.14-4.28-6.26-1.82-12.52-3.64-18.84-5.19-4.47-1.09-8.89-2.49-13.39-3.43-2.04-.42-4.06-.94-6.11-1.25-2.7-.41-5.4-.87-8.1-1.31-1.89-.3-3.77-.7-5.66-.87-2.1-.19-4.17-.56-6.26-.87-2.48-.38-4.95-.8-7.44-.95-3.7-.22-7.41-.32-11.11-.45-3.96-.13-7.93-.35-11.89-.14-1.08,.06-2.16,.13-3.23,.15-2.81,.06-5.63,.05-8.44,.15-3.47,.12-6.93,.34-10.39,.46-1.87,.06-3.73,.2-5.57,.42-1.89,.22-3.78,.32-5.67,.41-2.35,.11-4.71,.19-7.04,.54-3.56,.54-7.12,.96-10.71,1.23-2.09,.16-4.18,.26-6.26,.45-1.59,.15-3.17,.47-4.77,.58-3.82,.26-7.63,.61-11.41,1.17-3.49,.51-6.98,1.07-10.49,1.48-1.98,.23-3.96,.49-5.92,.83-2.61,.45-5.2,1.07-7.79,1.66-3.42,.77-6.83,1.58-10.17,2.73-2.71,.93-5.36,2.02-7.93,3.39-1.62,.86-3.26,1.7-4.81,2.72-1.09,.72-2.11,1.62-2.68,2.9-.99,2.23-.6,3.55,1.17,4.37,1.05,.49,2.26,.48,3.18,1.42,2.98,.95,5.56,2.83,8.05,4.9,3.27,2.71,6.21,5.84,8.68,9.55,1.72,2.58,3.33,5.24,4.82,8,.75,1.39,1.68,2.61,2.64,3.79,.59,.72,1.3,1.23,2.07,1.56,1.1,.47,2.46-.27,2.36-2.01-.07-1.19-.49-2.23-.99-3.24-1.73-3.44-3.98-6.39-6.41-9.18-1.11-1.27-2.35-2.37-3.39-3.75,.21-.04,.32,.11,.45,.22,1.89,1.5,3.77,3.02,5.51,4.78,2.2,2.22,3.87,4.9,5.28,7.82,.3,.63,.52,1.35,.65,2.06,.14,.82,.32,1.72-.14,2.45-1.13,1.79-3.2,3.12-5.39,1.37-.45-.36-.79-.36-1.24-.11-1.35,.74-2.76,1.35-4.24,1.63-.97,.19-1.92,.38-2.86,.69-.6,.19-1.2,.33-1.82,.43-.18-.16-.55,.25-.59-.3,1.04-.16,1.98-.71,2.97-1.05,1.37-.46,2.54-1.26,3.61-2.35,.5-.51,.88-1.09,1.3-1.66,.15-.2,.17-.36,.02-.59-.47-.73-.92-1.48-1.43-2.32-.39,.69-.68,1.31-1.12,1.81-1.41,1.58-3.19,2.25-5.01,2.87-1.6,.54-3.25,.75-4.89,1.07-2.32,.44-4.68,.45-7.04,.5-2.47,.05-4.8-.7-7.01-2-1.15-.68-2.27-1.43-3.57-1.66-.54-.09-.81,.13-.79,.75,.01,.45,.21,.79,.47,1.12,.77,.94,1.68,1.64,2.67,2.21,3.97,2.26,8.18,3.12,12.51,3.4,2.3,.15,4.58-.15,6.87-.1,1.83,.04,3.67,.02,5.5-.1,4.44-.3,8.82-1.09,13.16-2.08,2.98-.68,5.87-1.65,8.63-3.13,1.81-.97,3.51-2.13,4.83-3.92,1.36-1.84,2.5-3.86,3.4-6.07,.14-.34,.25-.7,.35-1.06,.92-3.22,1-6.53,.5-9.88-.29-1.94-.9-3.79-1.94-5.4,.02-.07,.04-.15,.05-.22,.78,.91,1.42,1.95,1.85,3.14,1.08,2.96,1.61,6.01,1.32,9.21-.19,2.08-.63,4.05-1.5,5.86-.83,1.72-1.73,3.38-2.82,4.89-1.07,1.49-2.32,2.74-3.77,3.72-1.57,1.06-3.25,1.89-4.95,2.62-3.48,1.51-7.15,2.21-10.81,2.91-4.06,.78-8.14,1.28-12.28,1.21-3.11-.05-6.21,.37-9.33,.11-.13-.01-.33-.1-.37,.2,.6,.61,1.38,.7,2.08,.99,1.36,.58,2.64,1.4,4.04,1.88,2.69,.91,5.38,1.82,8.04,2.83,4.24,1.6,8.49,3.08,12.81,4.29,3.65,1.02,7.27,2.17,10.96,2.91,2.1,.42,4.14,1.16,6.25,1.57,4.5,.88,8.98,1.97,13.46,3.02,3.36,.78,6.72,1.51,10.1,2.05,1.79,.28,3.59,.51,5.36,.93,3.16,.75,6.35,1.25,9.53,1.79,3.09,.52,6.19,.82,9.29,1.19,2.32,.28,4.65,.42,6.96,.78,3.09,.49,6.19,.92,9.29,1.23,4.9,.49,9.81,.74,14.72,1.03,2.29,.14,4.58,.42,6.86,.58,1.31,.09,2.61,.39,3.92,.48,1.57,.1,3.14,.24,4.71,.31,2.75,.13,5.5,.29,8.25,.29,1.41,0,2.81,.05,4.21,.33,.54,.11,1.08,.12,1.62,.09,.04-.27-.09-.35-.17-.46-.88-1.11-1.76-2.22-2.64-3.34-.79-1.01-1.41-2.17-1.86-3.42-.23-.64-.62-1.18-.71-1.9-.06-.45,0-.71,.3-.98,.54-.5,1.14-.5,1.76-.28,.89,.32,1.78,.59,2.7,.64,2.85,.17,5.69,.34,8.54,.46,5.15,.22,9.87,1.99,14.14,5.51,.16,.13,.38,.37,.5,.32,.86-.34,1.76-.05,2.63-.22,4.05-.8,8.04-1.85,11.97-3.19,5.34-1.82,10.39-4.48,15.54-6.87,4.04-1.88,7.91-4.17,11.95-6.04,4.82-2.23,9.66-4.38,14.74-5.74,2.98-.8,6.01-.91,9.06-.66,1.44,.12,2.88,.58,4.29,.61,1.8,.04,3.51,.5,5.22,1.02,2.01,.61,3.9,1.65,5.84,2.52,2.3,1.03,4.65,1.54,7.04,1.19Zm-.13-8.2c-.05-.03-.12-.1-.13-.17-.07-.39,.22-.51,.41-.68,.15-.13,.33-.26,.52-.06,.04,.05,.06,.13,.09,.19,.03,.44-.56,.92-.89,.71Zm1.05-2.02c-.24,.22-.53,.26-.82,.34-.4-.06-.64-.39-.79-.78-.14-.37,.14-.52,.36-.68,.13-.1,.22-.32,.35-.37,.32-.1,.6-.73,.99-.11,.38,.62,.34,1.2-.1,1.6Zm5.01-4.15c-.39,.07-.87-.31-1.08-.81-.11-.26-.05-.52,.1-.61,.32-.2,.48-.61,.79-.8,.25-.16,.57-.44,.8-.21,.28,.27,.5,.68,.56,1.05-.03,.73-.52,1.27-1.17,1.39Zm-253.85-24.63c-.18-.08-.37-.18-.54-.28-.59-.36-.59-.38-.02-.95-.93-.52-1.74-1.18-2.52-1.97-1.72-1.75-1.62-5.07-.86-6.72,.76-1.63,1.86-2.78,3.45-3.24,.41-.12,.8-.29,1.21-.44,1.05-.2,2.11-.23,3.16,.12,1.32,.6,2.26,1.66,2.97,3.11,1.06,2.15,1.04,4.24,.14,6.37-.07,.17-.14,.34-.21,.51-.03,.02-.06,.02-.08,.05-.07,.14-.3,.27-.18,.4,.18,.19,.3-.07,.42-.21,.39-.27,.77-.55,1.27-.89-.22,.94-.67,1.59-1.16,2.17-.76,.89-1.65,1.58-2.68,1.96-.89,.33-3.64,.34-4.34,.02Zm8.59,3.6c.23-.3,.41-.41,.73-.15,.54,.43,1.25,.67,1.05,1.74,.06,.47-.44,1.45-.84,1.61-.5,.2-.96-.06-1.4-.32-.2-.11-.29-.42-.23-.59,.26-.75,.2-1.64,.7-2.29Zm2.36,14.42s-.05,.04-.11,.09c-.36-.48-.7-.98-.93-1.56-.64-1.62-1.46-3.14-2.36-4.56-1.39-2.2-2.93-4.28-4.86-5.89-.01-.16,.06-.23,.18-.26,1.8,1.31,3.53,2.73,4.97,4.56,1.63,2.07,2.97,4.36,3.13,7.29,0,.11,0,.23-.02,.34Zm8.63-13.75c-.67,.2-1.28-.11-1.85-.5-.22-.15-.3-.52-.24-.71,.3-.92,.17-2.01,.77-2.82,.28-.39,.52-.52,.89-.18,.13,.12,.25,.25,.39,.34,.75,.5,1.06,1.04,1.07,1.94,0,.54-.63,1.82-1.03,1.94Zm2.69,5.93c-.2-.06-.46-.02-.49-.4-.03-.52,.38-1.44,.65-1.35,.31,.1,.59,.31,.59,.78,0,.49-.36,.97-.75,.97Zm13.18,16.41c-.38,.28-.75,.53-.95,1.08-1.13,3.08-3.23,4.93-5.79,6.2-1.26,.62-2.61,.92-3.94,1.25-.45,.11-.72,.33-1.03,.78-.8,1.15-1.86,1.99-3.04,2.57-2.97,1.44-6.09,1.77-9.3,1.47-3.13-.3-6.15-1.27-9.09-2.53-2.19-.94-4.36-2-6.54-2.98-1.26-.57-2.48-1.25-3.78-1.67,.06-.56,.46-.13,.65-.29,1.12,.14,2.24,.28,3.36,.41,2.98,.97,5.81,2.48,8.76,3.57,3.2,1.19,6.44,1.93,9.78,1.84,2.07-.06,4.1-.39,6.02-1.28,.86-.4,1.69-.91,2.57-1.65-4.04,.29-10.28-.68-11.38-1.73,2.65-.08,5.3-.05,7.95,.02,2.46,.07,4.9,.03,7.29-.72,2.43-.76,4.47-2.2,6.06-4.46,.07-.11,.17-.24,.05-.39-.03-.02-.07-.05-.09-.04-.15,.05-.31,.12-.46,.18-2.48,.95-5,1.68-7.67,1.32-.37-.05-.68,.09-1.02,.26-1.61,.78-3.18,1.68-4.89,2.18-2.18,.64-4.42,.92-6.64,1.27-3.89,.61-7.79,.92-11.74,.47-1.05-.12-2.09-.3-3.11-.57-.24-.06-.36-.21-.14-.46,1.67,.05,3.32-.23,4.99-.29,2.58-.09,5.17-.12,7.73-.47,3.11-.42,6.25-.64,9.26-1.63,2.51-.82,4.91-1.92,6.92-3.95,1.13-1.14,1.92-2.56,2.55-4.11,.43-1.06,.36-2.31,.55-3.48,.42,1.48,.65,2.95,.06,4.45-.69,1.76-1.6,3.29-2.89,4.5-.12,.12-.24,.25-.35,.38-.02,.02-.02,.07-.03,.12,.37,.14,.7-.07,1.03-.14,1.99-.41,3.97-.87,5.85-1.73,2.52-1.14,4.57-2.99,6.01-5.68,.65-1.22,1.05-2.61,1.41-3.99,.58-2.18,1.11-4.39,1.17-6.7,.05-2.02,.07-4.03-.26-6.08-.54-3.33-1.76-6.29-3.22-9.17-.57-1.13-1.31-2.14-2.02-3.17-.36-.52-.69-1.04-.91-1.71,.55,.49,1.15,.91,1.64,1.47,1.39,1.57,2.64,3.27,3.46,5.35,.32,.81,.75,1.55,1.06,2.37,1.08,2.86,1.61,5.83,1.63,8.96,.02,3.95-.81,7.62-1.98,11.23-1.07,3.27-3.04,5.58-5.52,7.37Zm-.58-25.65c.13-.31,.07-.81,.53-.78,.22,.02,.34,.23,.3,.49-.06,.35-.2,.64-.55,.65-.18,0-.29-.13-.28-.36Zm9.12-6.91c.39-.76,.35-1.76,.97-2.41,.33-.35,.6-.59,.96-.05,.08,.12,.19,.24,.3,.29,.63,.3,.8,.87,.72,1.38,.03,.96-.5,1.92-1.08,2.18-.37,.17-1.39-.22-1.73-.65-.18-.23-.24-.57-.14-.75Zm7.41,6.3c.27-.51,.29-1.05,.4-1.59,.05-.25,.21-.47,.34-.68,.55-.9,.55-.89,1.31-.23,.1,.09,.22,.16,.34,.24,.96,.7,1.18,2.15,.41,3.09-.29,.36-.5,.94-1.07,.82-.56,.02-1.01-.34-1.46-.64-.33-.22-.4-.76-.27-1.01Zm5.13,10.68c0-.38,.45-1.01,.69-.93,.24,.07,.38,.27,.38,.58,0,.38-.37,.8-.69,.78-.18-.06-.37-.15-.37-.43Zm2.42-7.08c.11-.26,.27-.49,.35-.79,.15-.6,.48-1.11,1.01-1.23,.39-.09,1.17,1.24,1.17,1.85,0,.71-.47,1.53-1.03,1.73-.53,.19-.94-.23-1.34-.54-.34-.25-.3-.67-.15-1.03Zm.23-8.17c.07-.29,.28-.48,.52-.6,.26,.24,.57,.33,.61,.76,.04,.4-.25,.92-.61,1.05-.28,.1-.54-.03-.7-.27-.24-.36,.11-.63,.18-.93Zm10.29,.16c.17,.17,.34,.37,.55,.48,.78,.45,.55,1.31,.61,2.01,.05,.53-.89,1.61-1.3,1.68-.06,.01-.13,0-.26,0-.49,0-.91-.39-1.36-.7-.3-.21-.37-.71-.25-.91,.48-.76,.35-1.84,1.01-2.5,.53-.52,.49-.58,1.01-.06Zm-.33-2.2c.33-.83,.47-1.81,1.16-2.39,.13-.11,.25-.23,.44-.14,.52,.26,1.12,1.31,1.13,1.9,.16,1.04-.48,1.46-.99,1.84-.55,.42-1.04-.18-1.52-.5-.23-.15-.3-.48-.21-.71Zm-1.03,13.76c.3,.48,.99,.64,.82,1.51-.1,.53-.54,1.18-.97,1.26-.42,.07-.77-.17-1.03-.53-.21-.29,0-.54,.12-.81,.24-.58,.46-1.16,1.05-1.43Zm5.5-11.07c.18-.26,.25-.62,.44-.86,.2-.25,.45-.76,.75-.49,.32,.29,.84,.55,.76,1.31,0,.61-.43,1.26-.97,1.42-.43,.12-.76-.18-1.05-.48-.27-.29-.14-.6,.07-.9Zm4.47,15.13c.01,.11,0,.23,0,.31,.09,.76-.31,1.15-.73,1.5-.34,.29-.68,.05-1-.14-.28-.16-.41-.47-.27-.76,.21-.46,.29-1.01,.6-1.4,.17-.21,.35-.61,.6-.44,.31,.21,.74,.38,.8,.93Zm-.23-6.36c.06-.22,.13-.44,.38-.4,.16,.03,.18,.19,.2,.34-.05,.29-.22,.35-.43,.29-.09-.02-.19-.08-.14-.23Zm2.65-6.19c-.05-.34,.45-1.09,.71-1.07,.2,.01,.48,.38,.48,.63,0,.42-.39,.88-.75,.82-.19-.03-.4-.09-.44-.38Zm5.45,10.66c-.44,.38-.93,.13-1.36-.21-.38-.31-.99-.4-.9-1.19,0-.07-.05-.17-.03-.22,.47-.99,.54-2.25,1.42-2.97,.22-.18,.41-.24,.6,0,.29,.38,.62,.67,.99,.95,.58,.44,.28,1.2,.44,1.79-.03,.93-.62,1.39-1.16,1.85Zm-1.78-16.19c.41-.74,.49-1.71,1.15-2.27,.3-.25,.53-.43,.8,.04,.09,.16,.21,.31,.35,.4,.45,.31,.68,.72,.53,1.29,0,.92-.41,1.66-1.1,1.95-.61,.25-1.05-.27-1.51-.6-.26-.19-.35-.57-.22-.81Zm11.27,27.46c-.11,.51-.58,1.17-1.01,1.22-.39,.05-.7-.19-.95-.5-.26-.32-.07-.6,.09-.9,.48-.91,.47-.92,1.09-1.39,.3,.49,.97,.71,.78,1.56Zm-.19-23.41c-.44,.49-.92,.7-1.29,.41-.57-.44-.61-.61-.24-1.33,.27-.53,.55-1.01,1.14-1.21,.16,.21,.35,.43,.51,.67,.26,.4,.22,1.07-.11,1.45Zm1.47,11.08c-.2-.04-.42-.18-.33-.45,.13-.36,.26-.83,.68-.83,.22,0,.4,.25,.38,.58-.02,.4-.4,.77-.74,.71Zm4.2-5.27c-.04,.53-.54,1.11-.96,1.07-.23-.12-.53-.16-.51-.57,.02-.44,.71-1.33,.99-1.24,.28,.1,.51,.31,.48,.74Zm2.85,15.53c-.53,.4-.98-.09-1.44-.38-.33-.21-.43-.6-.29-.88,.36-.73,.47-1.64,1.12-2.18,.25-.21,.46-.3,.66,.03,.31,.53,1.15,.67,.89,1.59,.19,.99-.41,1.41-.94,1.81Zm6.92-12.5c-.03,.71-.43,1-.86,1.15-.29,.11-.29,.2-.27,.52,.03,.44-.12,.87-.04,1.35,.08,.52-.24,.94-.55,1.27-.33,.35-.71,.66-1.11,.89-.46,.26-.89-.08-1.28-.35-.37-.25-.69-.59-1.01-.93-.47-.51-.47-1.33-.03-1.9,.19-.24,.4-.44,.43-.83,.08-1.09,.86-1.53,1.5-2.08,.29-.25,.46,.1,.64,.31,.25,.28,.27,.91,.71,.83,.33-.05,.37-.59,.58-.86,.18-.23,.39-.64,.71-.41,.31,.23,.7,.51,.57,1.03Zm-3.08-8.24c.34-.57,.5-1.28,1.05-1.69,.32-.25,.55-.34,.81,.09,.13,.22,.28,.43,.47,.59,.37,.32,.5,.7,.36,1.19-.05,1.01-.51,1.75-1.26,2.03-.39,.15-1.31-.33-1.62-.89-.26-.49-.09-.87,.19-1.31Zm6.94,23.59c-.13,.42,0,.88-.29,1.28-.77,1.08-1.61,1.14-2.51,.15-.26-.28-.38-.65-.22-.92,.45-.75,.66-1.7,1.4-2.22,.39-.28,.62-.28,.87,.21,.11,.23,.3,.4,.47,.59,.23,.26,.36,.55,.28,.92Zm1.22-27.16c-.25-.23-.32-.6-.12-.8,.31-.31,.38-.81,.71-1.06,.25-.19,.55-.68,.8-.37,.29,.34,.78,.66,.63,1.46,.03,.67-.47,.97-.99,1.23-.45,.23-.73-.17-1.04-.46Zm2.18,7.81c-.56-.16-.74-.67-.38-1.15,.21-.28,.38-.61,.67-.79,.17-.1,.36-.31,.53-.15,.22,.21,.45,.45,.5,.77,.03,.7-.77,1.48-1.33,1.32Zm1.77,7.87c-.02-.33,.85-1.33,1.1-1.32,.21,0,.63,.65,.63,.95-.01,.53-.62,1.19-1.06,1.09-.32-.07-.64-.25-.68-.72Zm2.02,5.44c-.5,.36-.92-.12-1.34-.4-.27-.18-.39-.53-.27-.78,.33-.66,.47-1.47,1.03-1.97,.29-.26,.51-.42,.79,.04,.28,.46,.99,.64,.7,1.41,.16,.97-.42,1.35-.93,1.71Zm3.51-8.37c-.16,.96-.99,1.2-1.63,1.6-.09,.06-.26,.01-.38-.03-.7-.23-1.16-.84-1.64-1.42-.12-.15-.12-.35-.12-.46,.02-.23-.02-.44,.05-.53,.69-.89,.92-2.21,1.96-2.77,.33-.17,.55-.14,.75,.21,.15,.25,.25,.59,.45,.74,.93,.71,.7,1.74,.55,2.65Zm5.09,18.26c-.17,.56-.96,1.18-1.46,1.13-.33-.03-1.12-.73-1.23-1.09-.06-.2-.05-.43,.05-.55,.44-.49,.63-1.21,1.18-1.59,.59-.41,.55-.35,1.08,.25,.51,.58,.58,1.15,.37,1.84Zm3.18-25.51c-.29,.38-.69,.52-1.04,.62-.46,.02-.76-.24-.95-.61-.21-.4,.14-.58,.3-.84,.17-.28,.35-.52,.61-.69,.52-.34,.73-.3,1.07,.21,.33,.5,.34,.85,0,1.3Zm1.61,2.64c-.16-.25-.16-.51-.03-.74,.2-.33,.41-.66,.67-.93,.23-.24,.47-.54,.83-.46,.19,.04,.75,1.03,.76,1.28,.02,.61-.35,1.14-.95,1.4-.45,.19-.95-.03-1.28-.54Zm1.36,9.89c-.4,0-.68-.3-.9-.63-.24-.36,0-.61,.22-.86,.15-.18,.23-.46,.39-.64,.22-.25,.46-.55,.81-.49,.24,.04,.65,.98,.62,1.32-.06,.67-.6,1.29-1.14,1.3Zm5.2,5.33c-.14-.22-.16-.47-.04-.64,.43-.58,.6-1.44,1.44-1.73,.15,.19,.3,.39,.45,.58,.51,.64,.49,1.39-.07,1.95-.61,.62-1.33,.55-1.78-.16Zm3.7,6.62c.03,.5-.26,1.02-.84,1.36-.64,.38-1.37,.17-1.78-.55-.12-.22-.15-.49-.05-.65,.44-.67,.65-1.55,1.35-1.98,.27-.17,.48-.21,.64,.15,.22,.49,.84,.7,.67,1.67Zm1.52-19.91c-.67,.12-1.86-1.15-1.56-1.75,.45-.91,.91-1.89,1.85-2.28,.08-.03,.19-.05,.27-.02,.23,.08,1.08,1.57,1.08,1.86,0,1.02-.75,2.03-1.65,2.19Zm1.74-6.13c-.63-.05-1.49-1.23-1.21-1.73,.45-.8,.91-1.63,1.74-1.97,.12-.05,.3-.11,.36,.03,.24,.54,.74,.92,.83,1.54,.14,.98-.87,2.21-1.72,2.13Zm1.87,20.91c-.12,.01-.29-.05-.28-.24,.02-.34,.24-.51,.49-.59,.13-.04,.23,.11,.27,.3,0,.36-.19,.51-.48,.53Zm4.12-9.58c-.5,.17-1.07-.17-1.49-.86-.18-.3-.21-.63-.03-.85,.45-.51,.74-1.21,1.35-1.55,.41-.23,.72-.33,.93,.3,.13,.39,.57,.58,.52,1,.04,1.01-.41,1.66-1.28,1.96Zm1.23-10.15c-.15-.38,.08-.62,.35-.82,.27-.2,.4-.59,.73-.72,.24-.09,.55-.39,.7-.12,.22,.38,.63,.71,.51,1.29-.15,.7-.72,1.26-1.36,1.25-.46-.04-.74-.43-.92-.89Zm3.6,21.33c-.27,.59-.98,1.33-1.48,1.3-.62-.12-.99-.61-1.26-1.12-.28-.53,.13-.83,.41-1.21,.36-.49,.67-.97,1.19-1.25,.32-.17,.53-.2,.7,.23,.27,.65,.85,1.17,.44,2.06Zm5.71-10.39c-.21,.47-.63,.77-1.1,.84-.42,.07-.79,.51-1.29,.13-.64-.48-1.04-1.18-1.37-1.92-.19-.42,.06-1.13,.45-1.35,.34-.2,.5-.49,.69-.86,.36-.72,1.06-.92,1.7-1.19,.17-.07,.37,0,.42,.19,.2,.77,.66,1.4,.9,2.14,.03,.11,.04,.22,.07,.42-.14,.49-.24,1.09-.47,1.6Zm.48-7.18c-.3-.01-1.14-.82-1.24-1.24-.13-.54,.22-.75,.48-1.09,.37-.47,.69-.97,1.22-1.21,.31-.14,.58-.18,.7,.28,.12,.48,.58,.76,.56,1.19-.02,1.06-.94,2.1-1.73,2.06Zm4.95,15.12c-.62-.1-1.05-.67-1.33-1.28-.24-.53,.13-.84,.43-1.21,.39-.48,.63-1.13,1.22-1.37,.15-.06,.29-.15,.4-.21,.11,.04,.2,.05,.22,.1,.28,.51,.67,.98,.81,1.54,.27,1.06-.85,2.58-1.76,2.43Zm3.01-13.81c-.5,.13-1.16-.39-1.45-1.09-.12-.29-.07-.61,.07-.74,.56-.54,.93-1.34,1.68-1.61,.32-.11,.57-.13,.67,.34,.1,.45,.52,.71,.53,1.21,.03,.94-.52,1.62-1.5,1.88Zm4.06,7.83c-.42,.25-.73-.05-1.06-.33-.3-.26-.38-.61-.15-.87,.27-.3,.32-.75,.6-1,.24-.22,.44-.6,.82-.44,.26,.11,.67,.99,.64,1.41,.06,.65-.39,.95-.86,1.24Zm4.68,11.37c-.56,.49-1.13,.41-1.55-.2-.14-.21-.19-.46-.05-.63,.41-.51,.62-1.27,1.4-1.47,.13,.19,.26,.37,.38,.55,.43,.64,.36,1.28-.18,1.76Zm1.47-9.33c-.38,.13-.74,.22-1.07-.2-.38-.49-.38-.71,.08-1.17,.19-.19,.37-.42,.59-.57,.56-.38,1.15,.07,1.15,.88-.12,.46-.29,.9-.74,1.05Zm5.31-10.44c-.32,.91-.93,1.05-1.6,1.21-.43,0-1-.59-1.19-1.23-.16-.57,.13-.81,.5-1.04,.39-.24,.57-.77,1.04-.94,.71-.26,.68-.3,1.04,.55,.2,.48,.42,.84,.2,1.47Zm3.62,9.71c-.16-.29,.07-.47,.23-.65,.18-.21,.31-.48,.51-.65,.19-.15,.38-.44,.68-.23,.14,.1,.46,.8,.46,.97-.01,.58-.6,1.22-1.1,1.19-.36-.02-.6-.31-.78-.63Zm4.53,7.16c-.07,1.36-.66,2.14-1.67,2.39-.47,.11-1.27-.45-1.58-1.17-.22-.51-.04-.91,.31-1.28,.46-.5,.71-1.23,1.35-1.55,.42-.21,.72-.34,.92,.31,.16,.53,.79,.79,.67,1.3Zm-1.09-11.77c-.42,.1-1.22-.46-1.52-1.09-.25-.53-.06-.88,.29-1.27,.43-.47,.66-1.16,1.25-1.49,.42-.24,.72-.31,.93,.29,.1,.3,.28,.51,.47,.73,.18,.21,.19,.48,.19,.69-.08,1.14-.68,1.93-1.61,2.14Zm6.37,6.19c-.26-.02-.46-.2-.53-.52-.04-.2,.58-.82,.81-.85,.3-.03,.38,.25,.43,.49,.09,.41-.28,.85-.72,.88Zm4.36-6.57c-.18,.02-.38-.12-.37-.4,0-.25,.51-.7,.7-.63,.16,.06,.24,.23,.25,.41-.04,.42-.29,.59-.58,.62Zm8.56,6.22c-.6,.2-1.03-.06-1.45-.81-.17-.3-.21-.66-.02-.83,.48-.43,.76-1.11,1.35-1.39,.4-.19,.74-.31,.9,.36,.09,.36,.49,.56,.42,.91,0,.9-.43,1.51-1.2,1.76Zm2.28,8.23c-.42,.06-.97-.34-1.2-.87-.04-.1-.07-.22-.07-.32,.04-.46,1.24-1.61,1.66-1.59,.32,.01,.92,1.09,.85,1.54-.09,.64-.61,1.15-1.25,1.24Zm10.13-14.04c-.33,.69-.99,1.31-1.68,1.28-.64-.14-1-.73-1.26-1.34-.22-.51,.07-.87,.48-1.18,.41-.32,.64-.9,1.17-1.11,.7-.27,.67-.3,1.03,.46,.29,.61,.63,1.12,.27,1.89Zm2.22,8.73c-.45-.79-.37-1.28,.3-1.75,.19-.14,.37-.25,.48-.51,.33-.75,1.01-.87,1.6-1.14,.12-.06,.3-.06,.36,.08,.33,.74,.63,1.49,.87,2.07-.01,1.45-1.24,2.73-2.34,2.6-.34-.04-.6-.32-.82-.59-.18-.22-.31-.5-.45-.75Zm4.37,5.99c-.09,.72-.31,1.44-1.05,1.72-.98,.37-1.69,.03-2.12-1.1-.11-.3-.07-.59,.08-.74,.61-.62,1.05-1.5,1.93-1.71,.09-.02,.19-.06,.28-.08,.06,.03,.15,.04,.17,.09,.21,.63,.8,1.14,.71,1.83Zm8.72-3.1c-.13,.1-.3,.13-.38,.16-.39,.03-.56-.22-.69-.49-.13-.29,.1-.38,.24-.52,.1-.09,.19-.22,.3-.27,.26-.12,.53-.5,.79,.09,.23,.51,.05,.79-.27,1.04Zm.11-10.62c-.28-.46-.58-.68-1.05-.68-.62,0-1.25-.11-1.87-.09-1.41,.04-2.73-.39-3.99-1.12-2.57-1.5-5.3-2.34-8.11-2.81-1.09-.18-2.16-.1-3.22,.11-2.1,.4-4.2,.62-6.35,.44-.93-.08-1.81-.31-2.64-.84-.31-.2-.66-.32-1.07-.52,.02,.63-.2,1.13-.35,1.63-.25,.89-1.08,1.03-1.75,1.25-.47,.16-.84-.31-1.17-.71-.09-.11-.17-.24-.25-.36-.72-1-.68-1.36,.23-2.19,.04-.04,.04-.14,.06-.22-2.36-.97-4.82-.83-7.24-1.18-2.43-.35-4.81,.34-7.4,.1,.54-.53,1.1-.81,1.34-1.43,.12-.29,.26-.53,.08-.94-.35-.77-.24-1.09,.33-1.63q.19-.18,.39-.76c-.94-.23-1.89-.24-2.83-.28-2.26-.1-4.51-.33-6.74-.93-1.39-.38-2.68-1.08-4-1.67-.66-.29-1.31-.65-2.01-.71-.06,.23,.03,.3,.09,.38,.96,1.41,.63,3.03-.77,3.68-.39,.18-.75,.57-1.28,.22-.6-.41-1.02-.99-1.36-1.64-.21-.4-.02-1.01,.21-1.13,.7-.37,.67-1.36,1.27-1.81-1.31-.17-2.59-.45-3.89-.39-1.54,.08-3.07,.22-4.59,.45-.4,.06-.69,.16-.96,.6-.47,.78-1.12,.77-1.79,.07-.21-.22-.38-.22-.62-.19-1.07,.15-2.15,.2-3.22,.3-3.36,.31-6.58-.46-9.75-1.85-1.89-.82-3.79-1.56-5.78-1.97-2.68-.56-5.29-.33-7.84,.61-1.52,.56-3.06,1-4.59,1.5-2.47,.82-4.98,.68-7.49,.23-1.33-.24-2.65-.58-3.97-.87-.25-.06-.51-.15-.85-.02,.54,.58,.5,1.24,.41,1.98-.14,1.1-.88,1.35-1.54,1.66-.49,.24-.93-.17-1.29-.59-.16-.19-.35-.36-.5-.57-.27-.38-.34-1.13-.01-1.35,.58-.4,.59-1.22,1.19-1.7-1.58-.52-3.03-1.02-4.49-1.46-.44-.13-.93-.16-1.37-.07-2.12,.4-4.29,.51-6.4,1.01-1.7,.4-3.35,.98-4.89,1.87-1.04,.6-1.95,.52-2.76-.51-.83-1.05-1.9-1.35-3.02-1.55-.35-.07-.72-.05-1.08-.35,.32-.48,.79-.6,1.22-.81,.45-.21,.93-.36,1.35-.63,1.03-.66,1.12-1.89,.23-2.85-.78-.84-1.71-1.33-2.76-1.41-.85-.07-1.7-.02-2.55-.09-.56-.05-.79,.29-.8,.82,0,.91-.43,1.36-1.07,1.7-.92,.5-2.04-.29-2.09-1.51,0-.11,0-.23,0-.49-1.13,.2-2.3,.17-3.25,.94-.53,.43-1,.4-1.44,.02-1.16-.98-2.52-1.29-3.89-1.94-.02,1.45-.92,1.92-1.79,2.41-.48,.27-1,.34-1.53,.21-1.14-.28-1.58-1.01-1.55-2.67-1.31,.38-2.53,.92-3.57,1.9-.66,.63-.69,1.1-.19,1.99,.41,.73,.95,1.37,1.28,2.2-.39,.14-.72,.03-1.03-.05-2.09-.55-4.21-.81-6.33-1.14-1.52-.23-3.02-.14-4.47,.37-2.4,.85-4.86,1.02-7.36,.92-.36-.02-.72-.07-1.07-.14-.23-.05-.42-.08-.65,.06-.66,.42-1.82,.07-2.27-.63-.19-.3-.23-.7-.13-.99,.16-.43-.04-.53-.28-.69-1.32-.86-2.69-1.47-4.23-1.34-.94,.08-1.89,.13-2.84,.18-.24,.01-.44,.14-.64,.25-.38,.2-.77,.39-1.14,.63-1.19,.78-2.36,.72-3.53-.14-1.42-1.05-3.05-1.2-4.63-1.49-1-.18-2.01-.38-3.03-.12-1.13,.29-2.04,.91-2.65,2.09-.42,.81-.42,1.58,.06,2.36,.29,.47,.61,.92,.94,1.36,1.16,1.55,2.34,3.08,3.5,4.63,.46,.61,.93,1.22,1.23,1.96,.34,.41,.57,.89,.73,1.44-.37-.28-.72-.59-.95-1.04-.53-.58-1.07-1.16-1.59-1.74-.58-.65-1.19-1.23-1.83-1.8-1.22-1.09-2.55-1.79-4.09-1.78-.29,0-.58-.13-.88-.15-.85-.08-1.44-.62-1.72-1.52-.31-1.02-.91-1.41-1.77-1.57-1.06-.2-2.1-.15-3.12,.11-1.08,.28-1.82,1.1-2.35,2.21-.35,.73-.35,.88,.24,1.46,.92,.92,1.66,2.01,2.34,3.16,.11,.19,.25,.37,.24,.62-.24,.19-.44-.03-.64-.13-.49-.23-.99-.45-1.45-.74-1.95-1.2-4.06-1.55-6.19-1.74-.95-.08-1.73,.31-2.39,1.05-.49,.55-.91,1.18-1.38,1.75-.24,.29-.39,.7-.83,.86,.19-.91,.37-1.75,.55-2.59,.36-1.72,.18-3.34-.79-4.81-.53-.8-.92-1.66-1.03-2.72-.09-.84-.76-1.34-1.32-1.8-.76-.63-1.59-1.11-2.55-1.16-.35-.02-.71-.16-1.06-.24-.37-.32-.81-.36-1.22-.35-1.07,.03-2.15,.14-3.22,.22-2.72,.41-4.87,1.91-6.4,4.55-.27,.46-.51,.94-.88,1.61-.16-1.14,.23-1.97,.18-2.9-.86,.48-1.76,.73-2.66,1.04-.81,.28-1.58,.67-2.2,1.38-.49,.56-.73,1.18-.54,2.05,.21,.91,.5,1.74,1,2.5,.8,1.22,1.8,2.16,2.84,3.07,1.04,.9,2.03,1.86,2.52,3.33,.03,.02,.06,.04,.08,.07,.09,.16,.2,.41,.09,.49-.19,.13-.3-.14-.4-.31-1.06-1.12-2.22-2.08-3.4-3.02-1.75-1.39-3.6-2.48-5.63-3.06-1.25-.36-2.02-1.28-2.55-2.53-.31-.73-.73-1.18-1.37-1.39-1.17-.39-2.3-.96-3.52-1.15-.19-.03-.38-.12-.56-.21-.28-.14-.33-.39-.15-.64,.14-.2,.32-.38,.5-.54,1.12-1.05,2.41-1.74,3.71-2.43,3.06-1.61,6.34-2.43,9.53-3.6,2.32-.85,4.67-1.61,7.01-2.37,.43-.14,.75-.43,1.09-.7,.49-.38,1-.72,1.63-.61,.32,.05,.44,.22,.36,.63-.27,1.39-.17,1.54,1.04,1.71,.07,0,.13,.02,.2,.02,3.1-.16,6.21,.33,9.5,.33-.96-.72-1.84-1.16-2.76-1.53,.15-.46,.54-.41,.81-.52,3.16-1.18,6.39-2.02,9.73-2.32,1.46-.13,2.89-.57,4.37-.62,2.03-.06,4.05-.2,6.09-.02,3.67,.31,7.34,.28,11,.12,3.63-.16,7.27,0,10.9-.01,.23,0,.44,.02,.66-.11,2.34-1.41,4.91-1.98,7.48-2.4,3.29-.54,6.61-.94,9.93-1.23,1.08-.09,2.16-.09,3.24,.05,2.96,.39,5.88,.29,8.8-.25,2.41-.45,4.86-.64,7.3-.96,1.69-.22,3.37-.48,5.07-.56,3.38-.16,6.74,.17,10.1,.73,1.69,.28,3.4,.47,5.1,.59,2.62,.19,5.23,.57,7.83,1.03,3.16,.57,6.34,.72,9.52,.77,1.47,.02,2.95,.08,4.42,.07,3.18-.02,6.25,.79,9.29,1.89,1.1,.4,2.2,.82,3.29,1.23,.19,.07,.38,.14,.57,.2,.93,.28,1.13,.05,.93-1.08-.04-.22-.11-.44-.16-.66-.14-.15-.26-.33-.31-.58,.3-.13,.55,.05,.8,.21,1.94,.4,3.87,.88,5.82,1.18,4.51,.68,8.89,2.15,13.3,3.4,1.61,.46,3.2,.82,4.83,1,.3,.03,.56,.15,.82,.34,1.1,.79,2.27,1.41,3.5,1.88,1.28,.49,2.48,1.27,3.84,1.45,1.3,.17,2.6,.41,3.91,.58,1.57,.2,3.11,.58,4.61,1.2,1.29,.53,2.61,.85,3.96,.86,2.89,.02,5.76,.39,8.6,1.12,.58,.15,1.17,.16,1.76,.27,1.17,.22,2.31,.58,3.4,1.19,1.45,.81,2.97,1.29,4.56,1.35,.41,.02,.83,.02,1.27,.29-.48,.36-1,.51-1.4,.89-1.07,1.02-.91,2.33,.41,2.92,1.37,.61,2.8,.83,4.24,1.01,2.1,.26,4.19,.15,6.29,.24,1.83,.08,3.67,.09,5.5,.29,.93,.1,1.82,.4,2.63,.93,3.2,2.07,6.65,3.15,10.18,3.98,2.93,.69,5.86,1.42,8.8,2.09,1.35,.31,2.67,.83,4.03,1.11,.58,.12,1.11,.47,1.63,.83,.49,.33,.95,.72,1.45,1.01,1.97,1.15,3.41,3.05,4.54,5.12,1.23,2.25,2.08,4.79,1.46,7.57,.05,.21,.03,.42-.06,.62-.18-.16-.31-.35-.31-.62-1.2-2.15-2.71-3.98-4.23-5.82-.92-1.11-1.67-2.39-2.66-3.44-.57-.6-1.1-1.22-1.76-1.66-.3,.01-.23-.6-.59-.49-.46,0-.92,.03-1.37,0-.58-.03-1.06,0-1.56,.55-.87,.96-1.97,.72-2.69-.43Zm2.11,6.54c-.13-.54,.09-.89,.47-1.23,.48-.43,.86-1.01,1.48-1.19,.16-.05,.38-.15,.46,.01,.27,.56,.69,1.08,.7,1.73,.01,.6-.16,1.19-.6,1.59-.34,.32-.79,.31-1.13,.49-.47,0-1.23-.76-1.38-1.4Z"/>
      <path class="cls-6" d="M-183.11,234.59s-.15-6.85,12.27-11.03c12.42-4.18,64.2-11.01,73.03-11.97,8.83-.96,49.83-1.44,61.95-.54,12.12,.9,68.39,14.41,89.64,20.15,21.25,5.75,35.47,12.16,39.95,15.28,4.49,3.12,10.18,13.66,10.18,13.66,0,0-4.04-5.57-8.38-7.81s-48.63-12.04-48.63-12.04l-9.28-4.5-84.7-11.4s-40.85-4.95-49.23-2.22c-8.38,2.73-19.6,.62-26.79,1.63-7.18,1.01-16.76,4.4-16.76,4.4,0,0-6.28,.68-10.33-.85-4.04-1.53-10.92-2.27-10.92-2.27l-11.52,5.61s-10.47,.03-10.47,3.89Z"/>
      <path class="cls-2" d="M90.38,251.74c.46,.03,.91,0,1.37,0,.64-.33,1.3-.11,1.99-.09-.34,.72-1.01,.18-1.4,.58,.67,.44,1.2,1.06,1.76,1.66,.99,1.05,1.74,2.32,2.66,3.44,1.52,1.84,3.03,3.67,4.23,5.82,.12,0,.24,0,.37,0,.62-2.78-.23-5.32-1.46-7.57-1.13-2.07-2.57-3.97-4.54-5.12-.5-.29-.96-.68-1.45-1.01-.52-.35-1.05-.7-1.63-.83-1.36-.29-2.68-.8-4.03-1.11-2.94-.67-5.86-1.4-8.8-2.09-3.53-.83-6.98-1.91-10.18-3.98-.82-.53-1.71-.83-2.63-.93-1.83-.2-3.67-.21-5.5-.29-2.1-.09-4.19,.02-6.29-.24-1.44-.18-2.88-.41-4.24-1.01-1.32-.58-1.48-1.89-.41-2.92,.4-.38,.92-.53,1.4-.89-.44-.27-.86-.28-1.27-.29-1.6-.06-3.11-.53-4.56-1.35-1.08-.61-2.22-.97-3.4-1.19-.58-.11-1.18-.12-1.76-.27-2.84-.73-5.7-1.09-8.6-1.12-1.35-.01-2.67-.33-3.96-.86-1.5-.62-3.04-.99-4.61-1.2-1.3-.17-2.61-.4-3.91-.58-1.36-.18-2.56-.96-3.84-1.45-1.23-.47-2.4-1.09-3.5-1.88-.26-.19-.52-.3-.82-.34-1.63-.18-3.22-.54-4.83-1-4.41-1.25-8.79-2.73-13.3-3.4-1.95-.29-3.88-.78-5.82-1.18-.24,0-.48-.03-.49,.37,.05,.22,.12,.44,.16,.66,.2,1.12,0,1.36-.93,1.08-.19-.06-.38-.12-.57-.2-1.1-.41-2.19-.84-3.29-1.23-3.04-1.1-6.11-1.91-9.29-1.89-1.47,0-2.95-.05-4.42-.07-3.18-.05-6.36-.2-9.52-.77-2.6-.47-5.21-.85-7.83-1.03-1.7-.12-3.41-.31-5.1-.59-3.36-.56-6.72-.89-10.1-.73-1.7,.08-3.38,.34-5.07,.56-2.43,.32-4.88,.51-7.3,.96-2.92,.54-5.84,.64-8.8,.25-1.08-.14-2.16-.15-3.24-.05-3.32,.29-6.64,.7-9.93,1.23-2.58,.42-5.14,.99-7.48,2.4-.22,.13-.44,.11-.66,.11-3.63,0-7.27-.15-10.9,.01-3.66,.16-7.33,.19-11-.12-2.03-.17-4.06-.04-6.09,.02-1.48,.05-2.91,.49-4.37,.62-3.34,.3-6.57,1.14-9.73,2.32-.28,.1-.66,.06-.81,.52,.92,.37,1.8,.82,2.76,1.53-3.29,0-6.4-.49-9.5-.33-.06,0-.13,0-.2-.02-1.21-.18-1.31-.32-1.04-1.71,.08-.41-.03-.57-.36-.63-.63-.1-1.14,.23-1.63,.61-.35,.27-.67,.56-1.09,.7-2.35,.76-4.69,1.52-7.01,2.37-3.18,1.17-6.47,1.99-9.53,3.6-1.31,.69-2.59,1.38-3.71,2.43-.18,.16-.35,.34-.5,.54-.18,.26-.13,.5,.15,.64,.18,.09,.37,.18,.56,.21,1.21,.19,2.35,.76,3.52,1.15,.64,.21,1.06,.66,1.37,1.39,.53,1.25,1.29,2.17,2.55,2.53,2.03,.58,3.88,1.68,5.63,3.06,1.18,.94,2.34,1.9,3.4,3.02,.08-.08,.15-.16,.23-.25-.49-1.47-1.48-2.43-2.52-3.33-1.04-.91-2.04-1.85-2.84-3.07-.49-.75-.79-1.59-1-2.5-.2-.87,.04-1.49,.54-2.05,.62-.71,1.38-1.1,2.2-1.38,.89-.3,1.8-.55,2.66-1.04,.05,.93-.34,1.76-.18,2.9,.37-.67,.61-1.15,.88-1.61,1.54-2.64,3.68-4.14,6.4-4.55,1.07-.08,2.14-.18,3.22-.22,.41-.01,.86,.03,1.22,.35,.35,.08,.71,.22,1.06,.24,.96,.05,1.79,.53,2.55,1.16,.56,.47,1.23,.96,1.32,1.8,.11,1.06,.5,1.91,1.03,2.72,.98,1.47,1.16,3.08,.79,4.81-.18,.84-.36,1.68-.55,2.59,.44-.16,.59-.57,.83-.86,.47-.57,.9-1.19,1.38-1.75,.65-.74,1.44-1.13,2.39-1.05,2.14,.19,4.24,.54,6.19,1.74,.47,.29,.96,.51,1.45,.74,.2,.1,.4,.32,.64,.13,.01-.25-.13-.44-.24-.62-.68-1.15-1.42-2.24-2.34-3.16-.59-.59-.59-.73-.24-1.46,.53-1.1,1.27-1.93,2.35-2.21,1.02-.26,2.06-.31,3.12-.11,.86,.16,1.46,.55,1.77,1.57,.28,.91,.87,1.44,1.72,1.52,.29,.03,.58,.16,.88,.15,1.55,0,2.87,.7,4.09,1.78,.64,.57,1.25,1.15,1.83,1.8,.53,.59,1.06,1.16,1.59,1.74,.15-.07,.21-.22,.22-.4-.3-.74-.77-1.35-1.23-1.96-1.16-1.55-2.34-3.08-3.5-4.63-.33-.44-.64-.89-.94-1.36-.48-.78-.48-1.55-.06-2.36,.61-1.18,1.53-1.8,2.65-2.09,1.01-.26,2.03-.06,3.03,.12,1.59,.29,3.21,.44,4.63,1.49,1.17,.87,2.34,.93,3.53,.14,.37-.24,.76-.43,1.14-.63,.2-.11,.4-.24,.64-.25,.95-.05,1.89-.1,2.84-.18,1.53-.13,2.9,.48,4.23,1.34,.24,.16,.44,.26,.28,.69-.11,.29-.07,.69,.13,.99,.45,.71,1.6,1.05,2.27,.63,.23-.14,.42-.11,.65-.06,.35,.07,.71,.13,1.07,.14,2.5,.11,4.96-.06,7.36-.92,1.44-.51,2.95-.6,4.47-.37,2.12,.33,4.24,.59,6.33,1.14,.31,.08,.63,.19,1.03,.05-.33-.83-.87-1.47-1.28-2.2-.5-.89-.47-1.36,.19-1.99,1.04-.98,2.26-1.51,3.57-1.9-.03,1.66,.41,2.38,1.55,2.67,.53,.13,1.05,.07,1.53-.21,.86-.49,1.77-.96,1.79-2.41,1.37,.64,2.73,.95,3.89,1.94,.44,.37,.91,.4,1.44-.02,.95-.77,2.12-.74,3.25-.94,0,.27,0,.38,0,.49,.05,1.22,1.17,2,2.09,1.51,.64-.34,1.07-.79,1.07-1.7,0-.53,.24-.87,.8-.82,.85,.08,1.7,.03,2.55,.09,1.05,.08,1.98,.57,2.76,1.41,.89,.96,.8,2.19-.23,2.85-.42,.27-.9,.42-1.35,.63-.43,.2-.91,.33-1.22,.81,.36,.29,.73,.28,1.08,.35,1.12,.21,2.19,.51,3.02,1.55,.81,1.03,1.72,1.11,2.76,.51,1.54-.89,3.19-1.47,4.89-1.87,2.11-.5,4.27-.61,6.4-1.01,.44-.08,.93-.06,1.37,.07,1.46,.44,2.91,.94,4.49,1.46-.61,.48-.62,1.3-1.19,1.7-.32,.22-.26,.97,.01,1.35,.15,.21,.33,.38,.5,.57,.36,.42,.8,.83,1.29,.59,.66-.32,1.4-.56,1.54-1.66,.1-.75,.13-1.4-.41-1.98,.35-.13,.6-.03,.85,.02,1.32,.29,2.64,.63,3.97,.87,2.52,.46,5.02,.59,7.49-.23,1.53-.51,3.08-.94,4.59-1.5,2.55-.94,5.16-1.17,7.84-.61,1.99,.41,3.89,1.15,5.78,1.97,3.16,1.38,6.38,2.16,9.75,1.85,1.07-.1,2.15-.15,3.22-.3,.24-.03,.41-.03,.62,.19,.67,.7,1.32,.71,1.79-.07,.27-.44,.56-.54,.96-.6,1.52-.24,3.05-.38,4.59-.45,1.3-.06,2.58,.22,3.89,.39-.6,.46-.57,1.45-1.27,1.81-.23,.12-.42,.73-.21,1.13,.34,.66,.76,1.24,1.36,1.64,.53,.36,.88-.03,1.28-.22,1.4-.64,1.72-2.26,.77-3.68-.06-.09-.15-.16-.09-.38,.7,.06,1.35,.41,2.01,.71,1.32,.59,2.61,1.29,4,1.67,2.23,.6,4.48,.83,6.74,.93,.94,.04,1.89,.04,2.83,.28q-.21,.59-.39,.76c-.57,.54-.67,.86-.33,1.63,.18,.41,.04,.65-.08,.94-.25,.62-.8,.91-1.34,1.43,2.59,.24,4.97-.45,7.4-.1,2.42,.35,4.88,.2,7.24,1.18-.02,.09-.02,.18-.06,.22-.91,.83-.94,1.19-.23,2.19,.09,.12,.16,.25,.25,.36,.32,.4,.7,.86,1.17,.71,.67-.22,1.49-.36,1.75-1.25,.14-.51,.36-1,.35-1.63,.41,.2,.76,.32,1.07,.52,.83,.53,1.71,.76,2.64,.84,2.14,.18,4.25-.03,6.35-.44,1.06-.2,2.13-.29,3.22-.11,2.82,.47,5.54,1.31,8.11,2.81,1.26,.74,2.58,1.16,3.99,1.12,.62-.02,1.25,.09,1.87,.09,.47,0,.77,.22,1.05,.68,.71,1.16,1.82,1.39,2.69,.43,.5-.55,.97-.59,1.56-.55Z"/>
    </g>
  </g>
</svg>