<?xml version="1.0" encoding="UTF-8"?>
<svg id="Layer_1" data-name="Layer 1" xmlns="http://www.w3.org/2000/svg" viewBox="0 0 306 216">
  <defs>
    <style>
      .cls-1 {
        fill: #336891;
      }

      .cls-2 {
        fill: #193347;
      }
    </style>
  </defs>
  <path class="cls-1" d="M150.52,175.15c-.21-.1-.42-.2-.64-.29-1.07-.48-1.57-1.33-1.46-2.49,.1-1.08,.74-1.78,1.86-2.07,1.96-.5,3.58,.6,3.54,2.4-.03,1.06-.56,1.82-1.56,2.19-.26,.1-.52,.18-.79,.26h-.96Zm2.07-2.48c.02-.85-.51-1.39-1.4-1.41-.93-.03-1.48,.43-1.54,1.27-.06,.84,.47,1.42,1.33,1.47,.98,.05,1.57-.44,1.6-1.33Z"/>
  <path class="cls-1" d="M138.28,175.15c-.26-.1-.52-.18-.77-.29-1.04-.44-1.51-1.27-1.42-2.51,.07-1.03,.67-1.8,1.73-2.02,.57-.12,1.19-.12,1.77-.02,1.13,.2,1.77,.97,1.85,2.04,.09,1.29-.41,2.11-1.54,2.54-.22,.08-.44,.17-.65,.25h-.96Zm.5-3.89c-.95,0-1.43,.43-1.46,1.32-.02,.92,.43,1.39,1.35,1.42,1.01,.03,1.52-.43,1.52-1.38,0-.91-.47-1.36-1.41-1.36Z"/>
  <path class="cls-1" d="M177.16,175.15c-.26-.1-.52-.18-.77-.29-1.04-.44-1.51-1.27-1.42-2.51,.07-1.03,.67-1.8,1.73-2.02,.57-.12,1.19-.12,1.77-.02,1.13,.2,1.77,.97,1.85,2.04,.09,1.29-.41,2.11-1.54,2.54-.22,.08-.44,.17-.65,.25h-.96Zm.46-1.15c.95,0,1.43-.43,1.45-1.33,.02-.91-.44-1.39-1.36-1.41-1.01-.03-1.52,.43-1.51,1.39,0,.91,.47,1.35,1.42,1.36Z"/>
  <path class="cls-1" d="M131.56,175.15c-.25-.1-.51-.2-.76-.31-.9-.42-1.4-1.28-1.34-2.33,.05-1.01,.53-1.74,1.48-2.12,1.37-.55,2.75-.06,3.45,1.26-.5,.41-.9,.39-1.4-.09-.5-.48-1.41-.41-1.86,0-.44,.42-.56,1.19-.26,1.77,.4,.77,1.52,.95,2.24,.27,.43-.4,.79-.43,1.3-.26,.02,.71-.36,1.12-.93,1.4-.31,.16-.65,.27-.97,.4h-.96Z"/>
  <path class="cls-2" d="M61,127.06c-10.04-7.9-20.63-14.68-32.33-19.8,.54-1.71,1.55-3.02,2.68-4.25,1.66-1.8,3.58-3.25,5.75-4.42,4.25-2.29,8.39-4.79,12.66-7.05,2.99-1.59,6.12-2.91,9.19-4.36,6.82-3.23,13.81-6.08,20.8-8.92,3.56-1.45,7.27-2.42,10.97-3.41,2.19-.59,4.42-1.07,6.64-1.53,3.44-.71,6.91-1.23,10.45-1.15,4.16,.09,8.32,.02,12.47,.09,1.92,.03,3.83,.19,5.75,.34,.75,.06,1.27-.18,1.78-.72,2.92-3.07,5.89-6.09,8.82-9.16,1.66-1.73,3.25-3.52,4.89-5.27,5.18-5.5,10.36-10.99,15.55-16.48,.05-.06,.13-.08,.33-.2,2.97,4.67,6.62,8.83,10.11,13.05-.65,1-1.27,1.92-1.85,2.87-.13,.21-.23,.58-.13,.74,.1,.15,.48,.22,.72,.18,.91-.13,1.82-.29,2.71-.5,.83-.2,1.41-.04,1.97,.68,2.96,3.83,5.97,7.61,8.97,11.41,.54,.69,1.07,1.38,1.67,2.17-.79,.32-1.48,.62-2.19,.87-3.28,1.19-6.41,2.71-9.37,4.54-.74,.46-1.47,.57-2.28,.44-2.48-.41-4.96-.84-7.45-1.23-1.69-.26-3.39-.46-5.09-.7-1.42-.2-2.83-.45-4.25-.64-1.46-.2-2.92-.42-4.39-.52-2.31-.16-4.62-.22-6.94-.32-.19,0-.39,.03-.73,.07,2.14,.38,4.13,.69,6.1,1.1,5.76,1.17,11.4,2.82,17.04,4.44,2.27,.65,4.55,1.24,6.81,1.92,4.79,1.42,9.54,2.97,14.35,4.31,6.04,1.68,12.09,3.38,18.21,4.72,4.28,.94,8.67,1.36,13.03,1.9,2.57,.32,5.19,.28,7.76,.62,2.56,.33,5.12,.23,7.65,.03,1.86-.15,3.61-.9,5.26-1.89,3.68-2.2,6.38-5.38,9.05-8.64,4-4.89,8.18-9.63,12.28-14.44,2.62-3.07,5.23-6.16,7.86-9.22,.78-.91,1.6-1.78,2.43-2.65,.71-.74,1.61-.99,2.78-.88,.22,1.15,.52,2.3,.65,3.47,.34,2.97,.76,5.95,.85,8.94,.16,5.23-.81,10.33-2.22,15.36-1.06,3.77-2.12,7.53-3.1,11.32-.82,3.13-.78,6.33-.51,9.53,.44,5.19,2.46,9.89,4.66,14.52,2.11,4.44,4.23,8.87,6.32,13.32,.39,.83,.68,1.71,.93,2.59,.17,.61,.25,1.26,.25,1.89,.01,1.54-.38,1.83-1.91,1.49-1.54-.34-2.93-1.06-4.23-1.93-3.09-2.08-6.27-3.99-9.66-5.56-2.79-1.29-5.55-2.69-8.41-3.78-1.92-.73-3.99-1.1-6.03-1.49-2.57-.49-5.18-.5-7.75-.05-2.32,.4-4.61,.96-6.91,1.45-1.76,.37-3.52,.73-5.28,1.12-.49,.11-.95,.3-1.69,.54,1.16,.51,2.07,.15,2.95,.19,.88,.04,1.76-.02,2.64-.06,.92-.04,1.84-.11,2.75-.15,.88-.04,1.76-.07,2.64-.09,.91-.01,1.82,0,2.77,0-.01,.18,0,.3-.04,.39-1.41,2.83-1.93,5.81-1.6,8.95,.04,.39,0,.8,.04,1.19,.22,1.83-.32,1.8,2.13,5.95-.62,.2-1.18-.09-1.71-.22-4.72-1.19-9.17-3.07-13.41-5.42-2.69-1.49-5.26-3.19-7.86-4.84-.84-.53-1.61-1.18-2.36-1.83-.94-.81-1.89-1.2-3.17-.8-2.85,.91-5.72,1.75-8.6,2.56-3.34,.94-6.67,1.89-10.11,2.44-4.45,.71-8.88,1.59-13.39,1.95-3.75,.3-7.48,.71-11.25,.53-.75-.04-1.52-.15-2.23-.39-1.73-.58-3.43-1.25-5.03-2.32,.18,.26,.35,.55,.56,.79,2.34,2.75,5.02,5.15,7.81,7.44,2,1.64,4.01,3.27,6.08,4.96-.26,.03-.54,.08-.82,.09-7.38,.08-14.43-1.54-21.29-4.11-.7-.26-1.36-.68-1.97-1.12-3.47-2.5-6.87-5.1-9.97-8.06-.98-.94-2.06-1.55-3.39-1.88-4.96-1.25-9.88-2.64-14.84-3.88-3.65-.91-7.37-1.35-11.13-1.63-4.51-.34-9.02-.52-13.54-.37-1.51,.05-3.03,.18-4.53,.4-.8,.12-1.55,.51-2.33,.77-.01,.1-.03,.19-.04,.29,.79,.48,1.57,.98,2.37,1.44,1.35,.77,2.73,1.5,4.08,2.28,.91,.52,1.25,1.38,.89,2.33-1.36,3.63-2.74,7.24-4.13,10.86-.03,.07-.1,.12-.25,.28-.97-.64-1.98-1.26-2.94-1.95-3.18-2.29-6.28-4.68-8.95-7.59-2.37-2.58-4.25-5.48-5.93-8.53-.12-.21-.27-.41-.34-.63-.45-1.66-1.64-2.1-3.23-2.14-1.23-.03-2.46-.28-3.68-.51-.34-.06-.72-.34-.92-.64-2.06-3.09-4.11-6.19-6.12-9.31-.76-1.18-1.79-2-3.01-2.66-2.8-1.5-5.7-2.66-8.82-3.36-3.05-.68-6.09-1.33-9.22-1.39-.39,0-.78,0-1.17,.12,1.32,.23,2.65,.42,3.96,.71,3.97,.89,7.65,2.54,11.23,4.44,.67,.36,1.33,.74,2,1.1,2.06,1.12,3.15,2.95,3.46,5.19,.31,2.17,.41,4.37,.59,6.55,.02,.23-.04,.46-.08,.8Zm3.85-29.19c-.15-.06-.46-.12-.47-.09,.17,.02,.33,.04,.5,.07,2.48,.97,4.48,2.54,6.06,4.7,2.89,3.93,2.8,9.83-1.15,13.54-.28,.26-.54,.54-.85,.85,.18,.04,.27,.09,.33,.08,2.67-.77,4.82-2.1,5.57-5.02,.29-1.13,.66-2.23,.48-3.41-.23-1.47-.65-2.87-1.36-4.19-1.98-3.65-5-5.83-9.09-6.52Zm15.62,27.09c.41-.13,.64-.2,.87-.28,3.94-1.54,8.06-2.28,12.24-2.53,2.82-.17,5.65-.25,8.5-.13,4.19,.17,8.38,.29,12.54,.78,2.45,.29,4.91,.59,7.31,1.11,3.85,.83,7.69,1.75,11.49,2.79,7.49,2.07,15,4.01,22.76,4.79,3.09,.31,6.18,.77,9.28,.87,5.54,.17,11.1,.36,16.6-.68,1.38-.26,2.77-.53,4.43-.84-.53-.54-.83-.89-1.17-1.2-1.06-.94-1.94-2.01-2.63-3.24-.76-1.35-.97-1.35-2.51-1.02-2.34,.5-4.68,1.07-7.05,1.28-3.06,.27-6.15,.25-9.22,.28-1.19,.01-2.4-.07-3.57-.3-4.03-.78-8.05-1.57-12.05-2.48-3.97-.91-7.88-2.06-11.85-2.94-5.46-1.21-10.95-2.27-16.43-3.35-2.47-.49-4.94-.98-7.44-1.25-2.18-.24-4.39-.21-6.58-.25-3.84-.07-7.67,.06-11.49,.49-1.3,.14-2.6,.24-3.9,.41-.64,.08-.87-.3-1.01-.77-.08-.26-.02-.55-.02-.83-.11-5.11,.05-10.23-.18-15.35-.28-6.1-.21-12.22-.29-18.33,0-.39,0-.78,0-1.26-9.53,2.3-18.37,5.81-26.28,11.47,.22,.09,.41,.1,.59,.05,3.38-.96,6.81-1.75,10.3-2.21,1.78-.23,3.58-.31,5.37-.39,.82-.04,1.05,.24,1.17,1.04,.03,.2,.03,.4,.03,.6,.07,5.03,.17,10.06,.21,15.1,.04,4.48,.01,8.96,.01,13.44,0,1.68,0,3.35,0,5.16Zm35.33-47.5v35.58c.52,.14,1.01,.3,1.51,.41,.94,.2,1.88,.37,2.82,.57,2.69,.57,5.38,1.18,8.08,1.73,1.77,.36,3.56,.58,5.36,.36,1.79-.21,3.48-.76,4.56-2.31,.87-1.25,1.56-2.6,1.62-4.18,.04-1.08,.22-2.16,.11-3.22-.26-2.53-.87-4.96-2.67-6.91-.51-.55-1.02-1.1-1.51-1.63,.03-.1,.03-.15,.06-.18,.17-.17,.33-.34,.51-.49,1.49-1.33,2.34-2.99,2.61-4.96,.35-2.54,.14-5.01-.89-7.4-1.51-3.51-4.35-5.33-7.92-6.13-3.59-.8-7.24-1.2-10.91-1.39-1.07-.06-2.14,.1-3.32,.16Zm61.85,33.8c.74,0,1.41,.03,2.07,0,.6-.03,.96,.19,1.2,.74,.81,1.87,1.64,3.72,2.49,5.57,1.03,2.24,2.04,4.5,3.17,6.69,.95,1.84,2.35,3.32,4.13,4.41,.97,.59,1.98,.99,3.17,.83,1.58-.21,3.18-.31,4.76-.52,1.1-.15,2.19-.4,3.28-.64,.23-.05,.42-.25,.74-.46-.43-.22-.71-.36-.98-.51-1.32-.74-2.66-1.47-3.97-2.23-1.06-.61-1.85-1.5-2.57-2.48-1.41-1.89-2.67-3.88-3.67-6.02-.88-1.87-1.71-3.75-2.55-5.61,.56-.64,1.07-1.15,1.48-1.73,.56-.77,1.24-1.53,1.53-2.41,1-3.1,1.16-6.25,.16-9.42-.81-2.54-2.1-4.69-4.39-6.2-1.19-.78-2.48-1.31-3.8-1.71-2.44-.74-4.92-1.37-7.4-1.98-2.05-.5-4.13-.89-6.2-1.36-.52-.12-.93-.07-1.27,.35v37.37c.93,.49,1.3,.58,2.22,.44,1.3-.2,2.6-.4,3.89-.65,.81-.16,1.6-.41,2.49-.64v-11.84Zm-25.48-19.33c4.02,.69,7.89,1.35,11.76,2.01,.5-.3,.48-.78,.48-1.27,0-2.24,0-4.48,0-6.72,0-1.05,0-1.06-1.12-1.28-3.99-.8-7.98-1.59-11.98-2.38-2.49-.49-4.98-.97-7.53-1.47-.1,.33-.21,.55-.22,.76-.08,1.63-.18,3.27-.21,4.9-.1,5.35-.2,10.71-.25,16.06-.04,4.56-.02,9.12-.03,13.68,0,.4,0,.8-.05,1.19-.17,1.09,.17,1.63,1.26,1.82,.79,.13,1.6,.14,2.38,.29,3.13,.62,6.26,1.27,9.38,1.93,2.11,.45,4.21,.95,6.32,1.37,.63,.13,1.3,.1,1.9,.14,.09-.22,.14-.29,.14-.36,.09-2.47,.16-4.94,.26-7.41,.02-.57-.16-.91-.74-1.04-1.37-.29-2.72-.61-4.09-.9-2.38-.5-4.77-.99-7.16-1.48-.54-.11-.85-.37-.84-.96,.04-1.24,.06-2.47,.1-3.71,0-.26,.09-.52,.14-.81,1.89,.33,3.69,.66,5.5,.95,1.83,.3,3.62,.89,5.64,.92,0-.8,0-1.51,0-2.22,.01-1.56-.08-3.13,.08-4.67,.08-.72,.1-1.31-.27-1.95-.3-.07-.61-.17-.92-.23-3.06-.57-6.11-1.14-9.17-1.7-.67-.12-.98-.52-.94-1.13,.07-1.03,.11-2.06,.16-3.09,.02-.39,0-.78,0-1.26Zm86.88,29.55c0-.58-.01-1.01,0-1.45,.08-2.8,.15-5.59,.24-8.39,.01-.31,.08-.64,.21-.92,1.36-3.07,2.67-6.16,4.13-9.18,2.3-4.74,4.73-9.42,7.08-14.13,.65-1.31,1.22-2.66,1.89-4.13-.38,.02-.59-.02-.74,.05-2.46,1.05-4.89,2.17-6.97,3.87-.74,.6-1.37,1.34-2.07,1.98-2.12,1.94-3.77,4.25-5.04,6.79-1,1.99-1.71,4.13-2.57,6.19-.15,.37-.13,.85-.66,1.13-1.21-2.71-2.39-5.35-3.51-7.85-3.3,.39-6.48,.76-9.76,1.14,.15,.36,.22,.58,.33,.79,1.18,2.27,2.35,4.55,3.56,6.8,1.38,2.57,2.81,5.11,4.23,7.65,.42,.75,.63,1.51,.59,2.38-.11,2.59-.18,5.19-.24,7.78-.02,.97,.3,1.18,1.25,1,1.36-.25,2.73-.44,4.08-.69,1.27-.24,2.53-.53,3.96-.83Zm-44.2-29.14c.12,2.89,.21,5.56,.35,8.22,.03,.65,.41,1.01,1.05,1.1,1.94,.26,3.88,.52,5.82,.75,1.27,.15,1.41,.25,1.44,1.53,.05,1.68,.02,3.36,.09,5.04,.21,5.23,.44,10.46,.71,15.68,.04,.89,.29,1.78,.43,2.62,1.38,.15,7.37-1.63,8.76-2.53-.27-6.8-.38-13.57-.3-20.37,.42-.03,.69-.06,.97-.06,1.44,0,2.88,.02,4.32,.02,1.61,0,1.64,0,1.6-1.56-.06-2.03-.17-4.05-.27-6.08,0-.07-.08-.13-.14-.2-.11-.02-.22-.05-.34-.07-4.5-.66-9.02-1.25-13.51-2.01-3.23-.54-6.42-1.3-9.62-1.95-.37-.08-.76-.08-1.36-.14Zm-93.21,21.3c.75,0,1.35,.02,1.94,0,1.68-.06,3.35-.13,5.02-.19,.24,0,.48,.02,.72,0,.81-.03,1.05-.27,1.1-1.08,.02-.24,0-.48,0-.72,0-8.47,0-16.94-.01-25.41,0-2.64,0-5.28,0-7.91,0-.94-.09-1.04-1.03-1.02-2.03,.05-4.06,.14-6.09,.22-.24,0-.47,.09-.71,.11-1.32,.13-1.25,.31-1.24,1.4,.06,9.07,.12,18.13,.18,27.2,.01,2.04,.03,4.08,.05,6.11,0,.39,.04,.78,.06,1.3Zm-49.73-12.67c-.17,.68-.16,.94,.07,1.64,.48,1.46,2.08,2.67,3.4,2.58,1.59-.11,3.14-1.49,3.43-3.06,.44-2.37-.95-4.5-3.3-5.05-.66-.15-1.3-.13-2.07,.4,.55,.19,.89,.29,1.21,.43,1.29,.55,1.88,2.11,1.25,3.3-.57,1.08-1.6,1.22-2.98,.39-.33-.2-.65-.41-1-.63Z"/>
  <path class="cls-2" d="M52.38,125.86c-2.96,1.68-6.23,2.3-9.39,3.21-3.17,.92-6.36,1.82-9.65,2.76-1.14-2.26-2.01-4.5-2.85-6.76,1.03-.88,2.01-1.69,2.96-2.53,.38-.33,.7-.26,1.07,0,.69,.47,1.4,.92,2.09,1.38,.7,.47,1.38,.58,2.23,.27,2.32-.85,4.7-1.56,7.03-2.39,.76-.27,1.35-.2,1.98,.31,1.38,1.14,2.81,2.22,4.22,3.33,.12,.09,.19,.24,.31,.41Z"/>
  <path class="cls-1" d="M197.02,149.17c1.1,2.08,2.07,3.91,3.1,5.87-.98,.52-1.87,1-2.89,1.55-1.79-3.34-3.53-6.6-5.35-10,.89-.47,1.7-.97,2.57-1.32,.29-.12,.76,.11,1.12,.25,2.11,.84,4.22,1.7,6.33,2.55,.15,.06,.29,.11,.72,.27-1.08-2.05-2.04-3.88-3.06-5.82,.92-.51,1.82-1,2.85-1.56,1.87,3.26,3.51,6.57,5.32,9.86-.77,.71-1.69,1.1-2.58,1.48-.23,.1-.61-.1-.9-.22-2.07-.83-4.14-1.68-6.21-2.53-.25-.1-.5-.19-1.01-.39Z"/>
  <path class="cls-1" d="M216.76,135.99c1.02,1.28,1.94,2.44,2.87,3.58,.31,.39,.37,.75,.15,1.21-1.41,2.99-3.68,5.02-6.83,5.95-1.71,.5-3.36,.09-4.69-1.14-2.69-2.49-3.24-5.67-.6-8.68,1.15-1.31,2.54-2.31,4.29-2.7,1.32-.29,2.52-.05,3.69,.77-.58,.99-1.51,1.57-2.27,2.4-1.53-.51-2.67,.15-3.6,1.34-.53,.67-.68,1.43-.43,2.26,.33,1.08,1.02,1.9,1.98,2.46,.79,.46,1.62,.39,2.41-.01,1.12-.57,2.05-1.37,2.8-2.54-.22-.28-.45-.57-.72-.91-.71,.52-1.35,.97-2.03,1.47-.5-.62-.95-1.17-1.52-1.86,1.52-1.22,2.98-2.39,4.5-3.61Z"/>
  <path class="cls-1" d="M183.58,149.88c.86,3.69,1.7,7.29,2.56,11.02-1.14,.28-2.2,.53-3.36,.82-.35-1.43-.69-2.77-1.05-4.24-1.6,.37-3.13,.72-4.77,1.09,.32,1.44,.62,2.78,.95,4.25-1.12,.27-2.18,.52-3.38,.8-.85-3.67-1.69-7.27-2.57-11.03,1.15-.27,2.21-.52,3.38-.79,.33,1.33,.63,2.56,.95,3.9,1.58-.37,3.11-.72,4.77-1.1-.29-1.32-.56-2.55-.86-3.91,1.13-.27,2.19-.52,3.37-.81Z"/>
  <path class="cls-1" d="M159.1,161.1c1.14-.07,2.16-.13,3.24-.19,.89,1.71,2.41,1.38,3.88,1.19,.19-.02,.42-.1,.54-.24,.21-.25,.52-.59,.48-.85-.04-.26-.41-.62-.69-.67-.82-.17-1.67-.15-2.49-.3-1.09-.2-2.2-.39-3.24-.76-1.11-.39-1.63-1.33-1.72-2.51-.09-1.25,.44-2.21,1.49-2.8,2.31-1.29,4.77-1.53,7.28-.68,1.16,.39,1.93,1.24,2.23,2.59-.91,.42-1.92,.39-2.87,.55-.17,.03-.41-.18-.58-.33-.95-.85-2.63-1.05-3.65-.36-.22,.15-.45,.52-.41,.75,.04,.23,.37,.54,.62,.59,.74,.15,1.5,.18,2.25,.29,1.02,.15,2.07,.25,3.06,.52,1.3,.36,2.1,1.24,2.23,2.65,.14,1.48-.4,2.64-1.71,3.27-2.36,1.13-4.85,1.3-7.34,.54-1.44-.44-2.33-1.46-2.58-3.25Z"/>
  <path class="cls-1" d="M149.83,157.69c-.15,.88-.28,1.68-.43,2.58-1.89-.31-3.65-.6-5.52-.91-.24,1.26-.47,2.5-.73,3.88-1.14-.19-2.23-.37-3.41-.57,.63-3.74,1.24-7.38,1.88-11.16,3.15,.53,6.16,1.03,9.31,1.56-.14,.88-.27,1.68-.42,2.59-1.98-.32-3.86-.62-5.86-.95-.13,.67-.24,1.27-.38,2.01,1.87,.33,3.66,.64,5.56,.98Z"/>
  <path class="cls-1" d="M114.76,139.93c-.54,.7-1.02,1.33-1.6,2.08-1.57-1.22-3.1-2.4-4.73-3.66-.42,.54-.8,1.03-1.26,1.63,1.48,1.17,2.9,2.29,4.42,3.49-.55,.71-1.03,1.32-1.6,2.05-1.49-1.14-2.94-2.25-4.47-3.43-.81,1.02-1.59,2.01-2.45,3.09-.91-.71-1.78-1.38-2.74-2.13,2.32-2.98,4.59-5.9,6.96-8.93,2.52,1.96,4.96,3.86,7.46,5.8Z"/>
  <path class="cls-1" d="M126.73,158.63c-1.17-.49-2.15-.91-3.2-1.35,.44-1.09,.82-2.1,1.25-3.07,.27-.61,.32-1.21,.17-1.86-.45-2.02-.87-4.05-1.3-6.08-.07-.34-.11-.68-.21-1.24,1.17,.47,2.16,.84,3.11,1.29,.22,.1,.39,.48,.44,.76,.29,1.4,.53,2.81,.81,4.35,1.41-1,2.74-1.94,4.16-2.94,1.02,.41,2.08,.83,3.29,1.31-.34,.29-.55,.5-.79,.67-1.78,1.21-3.56,2.43-5.36,3.61-.52,.34-.89,.76-1.1,1.35-.38,1.04-.82,2.06-1.28,3.2Z"/>
  <path class="cls-1" d="M116.11,140.76c1.05,.59,1.98,1.12,3.02,1.71-1.39,2.47-2.75,4.89-4.15,7.37,1.81,1.04,3.57,2.05,5.48,3.15-.55,.78-1.07,1.5-1.64,2.31-2.76-1.57-5.45-3.09-8.28-4.7,1.86-3.28,3.67-6.48,5.58-9.84Z"/>
  <path class="cls-1" d="M186.13,148.8c1.08-.42,2.07-.8,3.22-1.25,1.4,3.49,2.62,7,4.01,10.59-1.11,.42-2.13,.81-3.27,1.24-1.33-3.55-2.62-7.01-3.96-10.59Z"/>
  <path class="cls-1" d="M156.57,153.35c-.21,3.81-.41,7.47-.62,11.27-1.19-.05-2.28-.1-3.48-.15,.21-3.84,.41-7.52,.62-11.3,1.19,.06,2.25,.11,3.48,.18Z"/>
  <path class="cls-2" d="M204.33,89.03c2-1.57,3.84-2.88,5.89-3.88,.47-.23,.93-.46,1.42-.64,.85-.32,1.31,0,1.31,.89,0,1.32,0,2.63,0,3.95,0,.77-.15,.96-.9,.89-2.5-.21-4.99-.49-7.72-1.21Z"/>
  <path class="cls-1" d="M168.49,170.35c1,0,1.92-.07,2.82,.02,1.25,.13,1.96,.95,2,2.15,.04,1.21-.58,2.11-1.82,2.3-.96,.14-1.96,.03-3,.03v-4.49Zm1.24,3.54c.88,.07,1.67,.21,2.16-.57,.3-.47,.3-.99-.04-1.46-.55-.75-1.31-.53-2.12-.5v2.54Z"/>
  <path class="cls-1" d="M160.23,174.81c-.95,.37-1.41-.03-1.72-.73-.31-.7-.79-.95-1.59-.62-.05,.43-.1,.89-.16,1.41h-.98v-4.52c1,0,1.95-.08,2.88,.02,1.3,.15,1.76,1.31,1.02,2.38-.11,.15-.26,.28-.39,.42,.32,.56,.61,1.08,.94,1.64Zm-3.32-2.38c.55-.03,.94-.02,1.32-.07,.33-.05,.66-.23,.55-.61-.05-.2-.35-.42-.57-.46-.41-.07-.83-.02-1.3-.02v1.16Z"/>
  <path class="cls-1" d="M166.81,174.81q-1.11,.15-1.71-.79h-2.05c-.3,.58-.63,1.2-1.63,.77,.66-1.46,1.31-2.92,1.98-4.41h1.41c.66,1.46,1.32,2.93,2,4.43Zm-3.38-1.88h1.3c-.23-.53-.39-.92-.64-1.5-.26,.59-.45,1.01-.67,1.5Z"/>
  <path class="cls-1" d="M147.05,174c.11,.61,0,.93-.56,.93-1.03,0-2.06,0-3.17,0v-4.54h1.12v3.47c.92,.05,1.74,.09,2.61,.13Z"/>
  <path class="cls-2" d="M123.66,105.91v-5.05c2.28,.18,4.45,.53,6.3,1.9,.78,.58,1.01,1.9,.59,2.92-.34,.84-1.31,1.37-2.5,1.17-1.44-.23-2.86-.6-4.39-.94Z"/>
  <path class="cls-2" d="M123.67,92.09v-5.24c1.25,.11,2.45,.1,3.59,.36,2.05,.47,3.08,2.39,2.41,4.19-.24,.65-.65,1.16-1.37,1.16-1.54,0-3.07-.17-4.63-.47Z"/>
  <path class="cls-2" d="M178.07,96.15c1.66,.18,3.31,.54,4.81,1.46,1.98,1.21,1.79,4.13,.99,5.34-.21,.32-.67,.6-1.06,.66-1.53,.23-3.02-.04-4.48-.5-.23-.07-.51-.45-.51-.69,0-2.03,.06-4.06,.11-6.09,0-.03,.05-.06,.13-.18Z"/>
</svg>